<svg width="170" height="155" viewBox="0 0 170 155" fill="none" xmlns="http://www.w3.org/2000/svg">
<path d="M84.9785 84.9785C73.294 84.9785 63.2913 80.8181 54.9705 72.4973C46.6497 64.1765 42.4893 54.1738 42.4893 42.4893C42.4893 30.8047 46.6497 20.802 54.9705 12.4812C63.2913 4.16041 73.294 0 84.9785 0C96.6631 0 106.666 4.16041 114.987 12.4812C123.307 20.802 127.468 30.8047 127.468 42.4893C127.468 54.1738 123.307 64.1765 114.987 72.4973C106.666 80.8181 96.6631 84.9785 84.9785 84.9785ZM0 169.957V140.215C0 134.195 1.55086 128.661 4.65258 123.612C7.74721 118.57 11.8616 114.721 16.9957 112.065C27.9721 106.577 39.1255 102.459 50.456 99.7117C61.7865 96.9711 73.294 95.6009 84.9785 95.6009C96.6631 95.6009 108.171 96.9711 119.501 99.7117C130.832 102.459 141.985 106.577 152.961 112.065C158.095 114.721 162.21 118.57 165.305 123.612C168.406 128.661 169.957 134.195 169.957 140.215V169.957H0Z" fill="#4F957E"/>
</svg>
