<svg width="170" height="144" viewBox="0 0 170 144" fill="none" xmlns="http://www.w3.org/2000/svg">
<path d="M84.9785 85.3032C73.294 85.3032 63.2913 81.1428 54.9705 72.822C46.6497 64.5011 42.4893 54.4985 42.4893 42.8139C42.4893 31.1294 46.6497 21.1267 54.9705 12.8059C63.2913 4.48506 73.294 0.324646 84.9785 0.324646C96.6631 0.324646 106.666 4.48506 114.987 12.8059C123.307 21.1267 127.468 31.1294 127.468 42.8139C127.468 54.4985 123.307 64.5011 114.987 72.822C106.666 81.1428 96.6631 85.3032 84.9785 85.3032ZM0 170.282V140.539C0 134.52 1.55086 128.986 4.65258 123.937C7.74721 118.894 11.8616 115.046 16.9957 112.39C27.9721 106.902 39.1255 102.784 50.456 100.036C61.7865 97.2958 73.294 95.9255 84.9785 95.9255C96.6631 95.9255 108.171 97.2958 119.501 100.036C130.832 102.784 141.985 106.902 152.961 112.39C158.095 115.046 162.21 118.894 165.305 123.937C168.406 128.986 169.957 134.52 169.957 140.539V170.282H0Z" fill="#EBEBEB"/>
</svg>
