<svg width="82" height="62" viewBox="0 0 82 62" fill="none" xmlns="http://www.w3.org/2000/svg">
<path d="M56.1447 57.8464H1.70117C0.760744 57.8464 -0.000244141 58.6074 -0.000244141 59.5477C-0.000244141 60.4881 0.760744 61.2491 1.70117 61.2491H56.1447C57.0852 61.2491 57.8462 60.4881 57.8462 59.5477C57.8462 58.6074 57.0852 57.8464 56.1447 57.8464Z" fill="white"/>
<path d="M81.408 27.7745C80.8863 25.8356 79.6434 24.2155 77.9089 23.2137C77.1712 22.7867 76.3703 22.491 75.5295 22.3331L17.0285 11.4271L11.7251 0.936417C11.3429 0.180374 10.4723 -0.183452 9.66813 0.090733L4.56404 1.79215C3.80975 2.04305 3.33124 2.7841 3.41099 3.57491L5.11241 20.5886C5.18227 21.2947 5.68391 21.883 6.37185 22.064L35.6507 29.7701L20.9764 42.9739C20.4912 43.4109 20.3019 44.087 20.4813 44.7134C20.6641 45.3398 21.1892 45.8066 21.8337 45.9164L31.9223 47.6178C32.0153 47.6328 32.1118 47.6411 32.2048 47.6411C32.4971 47.6411 32.7897 47.5647 33.0455 47.4184L56.4359 34.1199L72.539 37.2584C75.7192 37.9114 78.9324 36.4593 80.6537 33.4736C81.6572 31.737 81.9264 29.7118 81.408 27.7745ZM77.6064 31.9548C76.7191 33.49 74.9679 34.2859 73.2069 33.9219L56.469 30.6588C56.0702 30.5824 55.6614 30.6505 55.3025 30.8499L31.8888 44.1617L25.8711 43.1466L40.2695 30.1903C40.7315 29.7717 40.9308 29.1336 40.7846 28.5255C40.635 27.9173 40.1665 27.4388 39.5617 27.281L8.37887 19.0749L6.93011 4.59015L9.34928 3.78259L14.3703 13.7132C14.6095 14.1868 15.0549 14.5208 15.5766 14.6187L74.9049 25.6793C75.3635 25.764 75.8021 25.9268 76.2042 26.1594C77.1546 26.7078 77.8358 27.5949 78.1183 28.655C78.4039 29.715 78.2578 30.8217 77.6064 31.9548Z" fill="white"/>
</svg>
