<svg width="90" height="40" viewBox="0 0 90 40" fill="none" xmlns="http://www.w3.org/2000/svg">
<path d="M72.0041 28C73.855 27.999 75.6482 27.3564 77.0783 26.1815C78.5084 25.0066 79.4869 23.3722 79.8471 21.5567C80.2072 19.7412 79.9267 17.8571 79.0534 16.2252C78.1801 14.5934 76.768 13.3148 75.0577 12.6074C73.3474 11.9 71.4448 11.8075 69.6739 12.3456C67.903 12.8838 66.3735 14.0193 65.346 15.5588C64.3185 17.0982 63.8566 18.9462 64.0389 20.7881C64.2213 22.6299 65.0366 24.3515 66.3459 25.6596C67.0885 26.4031 67.9706 26.9926 68.9416 27.3942C69.9126 27.7958 70.9534 28.0017 72.0041 28V28ZM69.5889 17.5848C70.0667 17.1071 70.6753 16.7817 71.3379 16.6499C72.0006 16.5181 72.6874 16.5857 73.3116 16.8442C73.9358 17.1028 74.4693 17.5406 74.8446 18.1023C75.22 18.6641 75.4203 19.3245 75.4203 20.0001C75.4203 20.6757 75.22 21.3362 74.8446 21.8979C74.4693 22.4597 73.9358 22.8975 73.3116 23.156C72.6874 23.4146 72.0006 23.4822 71.3379 23.3504C70.6753 23.2186 70.0667 22.8932 69.5889 22.4155C69.2705 22.099 69.0179 21.7226 68.8454 21.3081C68.673 20.8936 68.5842 20.4491 68.5842 20.0001C68.5842 19.5512 68.673 19.1067 68.8454 18.6922C69.0179 18.2776 69.2705 17.9013 69.5889 17.5848V17.5848Z" fill="white"/>
<path d="M4.65968 27.1988C4.86219 27.4893 5.1311 27.7284 5.44456 27.8968C5.75803 28.0651 6.1072 28.1579 6.46371 28.1676H51.2973C52.638 31.1274 54.6851 33.7205 57.2627 35.7239C59.8403 37.7273 62.8711 39.0811 66.0944 39.6687C69.3177 40.2563 72.637 40.0602 75.7667 39.0972C78.8965 38.1342 81.743 36.4332 84.0614 34.1405C86.1659 32.0648 87.7816 29.555 88.7933 26.7902C89.805 24.0254 90.1878 21.0737 89.9143 18.1457C89.6407 15.2177 88.7177 12.3855 87.211 9.85115C85.7043 7.31676 83.651 5.14262 81.1976 3.48379C78.7442 1.82497 75.9512 0.722332 73.0177 0.254532C70.0842 -0.213268 67.0825 -0.0347062 64.2268 0.777481C61.371 1.58967 58.7315 3.01547 56.4966 4.95319C54.2617 6.89091 52.4864 9.29281 51.2973 11.9876H33.6436C33.3007 11.9814 32.9612 12.0546 32.6521 12.2015L29.7227 13.633H26.9751L23.6369 9.40808C23.4493 9.16842 23.2135 8.9699 22.9444 8.82508C22.6753 8.68026 22.3788 8.59229 22.0736 8.56675C21.7683 8.5412 21.4611 8.57863 21.1712 8.67667C20.8814 8.77471 20.6152 8.93123 20.3897 9.13631L16.3357 12.8377L12.0321 9.09627C11.5929 8.71447 11.0192 8.51977 10.4357 8.55454C9.85217 8.58931 9.30616 8.85074 8.91647 9.28193L0.564172 18.5273C0.228382 18.9037 0.0307638 19.3812 0.00330438 19.8825C-0.024155 20.3838 0.120152 20.8797 0.412867 21.2897L4.65968 27.1988ZM58.6237 8.95366C60.8293 6.771 63.6394 5.28459 66.6986 4.6824C69.7578 4.08021 72.9288 4.38928 75.8105 5.57053C78.6922 6.75178 81.1552 8.75216 82.8881 11.3187C84.6211 13.8852 85.546 16.9027 85.546 19.9894C85.546 23.0762 84.6211 26.0936 82.8881 28.6602C81.1552 31.2267 78.6922 33.2271 75.8105 34.4083C72.9288 35.5896 69.7578 35.8987 66.6986 35.2965C63.6394 34.6943 60.8293 33.2079 58.6237 31.0252C57.1468 29.5829 55.9742 27.8646 55.1738 25.9702C54.3734 24.0757 53.9613 22.0428 53.9613 19.9894C53.9613 17.9361 54.3734 15.9031 55.1738 14.0087C55.9742 12.1142 57.1468 10.396 58.6237 8.95366ZM10.7576 13.8269L14.9102 17.4353C15.3218 17.7926 15.8524 17.9866 16.3999 17.9799C16.9473 17.9732 17.4729 17.7662 17.8754 17.3988L21.6322 13.967L24.154 17.1622C24.3603 17.426 24.6241 17.6402 24.9258 17.7889C25.2275 17.9376 25.5592 18.0169 25.8962 18.0208H30.247C30.5898 18.027 30.9294 17.9537 31.2385 17.8069L34.1671 16.3754H49.9261C49.4672 18.8226 49.4672 21.3326 49.9261 23.7798H7.6046L5.05208 20.1931L10.7576 13.8269Z" fill="white"/>
</svg>
