<svg width="67" height="75" viewBox="0 0 67 75" fill="none" xmlns="http://www.w3.org/2000/svg">
<path d="M65.7391 72.959H36.7645V49.8743H53.1993C53.7693 49.8743 54.1493 49.4943 54.1493 48.9243V33.1546C54.1493 32.5846 53.7693 32.2046 53.1993 32.2046H36.7645V25.1747H53.2943C53.5793 25.1747 53.7693 25.0797 53.9593 24.8897L62.6042 16.9098C62.7942 16.7198 62.8892 16.4348 62.8892 16.2448C62.8892 16.0548 62.7942 15.7698 62.6042 15.5798L53.9593 7.5999C53.7693 7.4099 53.5793 7.3149 53.2943 7.3149H36.7645V3.60995C36.7645 1.61498 35.1495 0 33.1546 0H32.6796C30.6846 0 29.0696 1.61498 29.0696 3.60995V7.2199H13.6798C13.1098 7.2199 12.7298 7.5999 12.7298 8.16989V24.2247C12.7298 24.7947 13.1098 25.1747 13.6798 25.1747H29.1646V32.2046H13.4898C13.2998 32.2046 13.0148 32.2996 12.8248 32.4896L4.17994 40.3745C3.98995 40.5645 3.89495 40.8495 3.89495 41.0395C3.89495 41.2294 3.98995 41.5144 4.17994 41.7044L12.8248 49.5893C13.0148 49.7793 13.2048 49.8743 13.4898 49.8743H29.0696V72.959H0.949987C0.379995 72.959 0 73.339 0 73.909C0 74.479 0.379995 74.859 0.949987 74.859H65.7391C66.3091 74.859 66.6891 74.479 66.6891 73.909C66.6891 73.339 66.2141 72.959 65.7391 72.959ZM32.7746 1.80498H33.2496C34.1995 1.80498 34.9595 2.56497 34.9595 3.51495V7.2199H31.1596V3.51495H31.0646C31.0646 2.56497 31.8246 1.80498 32.7746 1.80498ZM14.6298 23.1797V9.11988H52.9143L60.5142 16.1498L52.9143 23.1797H14.6298ZM34.8645 25.1747V32.2046H31.0646V25.1747H34.8645ZM13.8698 47.9744L6.26992 41.0395L13.8698 34.1045H52.1543V47.9744H13.8698ZM34.8645 72.959H31.0646V49.8743H34.8645V72.959Z" fill="white"/>
</svg>
