<svg width="60" height="46" viewBox="0 0 60 46" fill="none" xmlns="http://www.w3.org/2000/svg">
<path d="M55.7295 15.6327L51.1662 3.33881C50.7972 2.35676 50.1371 1.51082 49.2742 0.914155C48.4113 0.317486 47.3868 -0.00145313 46.3378 4.97734e-06H13.7968C12.7479 -0.00127329 11.7236 0.317751 10.8609 0.914409C9.99822 1.51107 9.33827 2.35691 8.96934 3.33881L4.46102 15.4939L2.54276 17.2411C1.75098 17.9103 1.11366 18.7432 0.674692 19.6824C0.235725 20.6215 0.00554315 21.6447 0 22.6814V44.5993C0.0137769 44.9068 0.14414 45.1976 0.364595 45.4125C0.585051 45.6274 0.879056 45.7503 1.18686 45.7562H12.6049C12.9044 45.7472 13.1884 45.6209 13.3957 45.4045C13.6029 45.1881 13.7168 44.8989 13.7129 44.5993V37.9203H45.6163V44.5993C45.6123 44.8989 45.7263 45.1881 45.9335 45.4045C46.1408 45.6209 46.4247 45.7472 46.7242 45.7562H58.1423C58.4501 45.7503 58.7441 45.6274 58.9646 45.4125C59.185 45.1976 59.3154 44.9068 59.3292 44.5993V22.2204C59.3212 21.2494 59.1177 20.2899 58.7306 19.3992C58.3435 18.5086 57.7809 17.7051 57.0763 17.0368L55.7295 15.6327ZM11.0682 4.10169C11.2781 3.54949 11.6521 3.07488 12.14 2.7418C12.6279 2.40872 13.2061 2.23318 13.7968 2.23884H46.3378C46.9285 2.23318 47.5067 2.40872 47.9946 2.7418C48.4824 3.07488 48.8565 3.54949 49.0663 4.10169L53.1083 14.9722H7.02687L11.0682 4.10169ZM11.474 43.5174H2.23884V37.9203H11.474V43.5174ZM47.8551 43.5174V37.9203H57.0903V43.5174H47.8551ZM57.0903 35.6815H2.23884V22.6814C2.24464 21.9643 2.40615 21.2571 2.71218 20.6087C3.01822 19.9602 3.46148 19.386 4.01129 18.9257C4.02431 18.9148 4.05327 18.8885 4.06629 18.877L5.85833 17.2111H54.1684L55.4305 18.5749C55.4463 18.5917 55.4963 18.6156 55.5131 18.6309C56.0045 19.0919 56.3975 19.6476 56.6686 20.2645C56.9396 20.8813 57.0831 21.5467 57.0903 22.2204V35.6815Z" fill="white"/>
<path d="M48.9406 22.6682H47.9539C46.7849 22.6682 45.6637 23.1326 44.8371 23.9592C44.0105 24.7858 43.5461 25.907 43.5461 27.076C43.5461 28.2449 44.0105 29.3661 44.8371 30.1927C45.6637 31.0193 46.7849 31.4837 47.9539 31.4837H48.9406C50.1096 31.4837 51.2307 31.0193 52.0573 30.1927C52.8839 29.3661 53.3483 28.2449 53.3483 27.076C53.3483 25.907 52.8839 24.7858 52.0573 23.9592C51.2307 23.1326 50.1096 22.6682 48.9406 22.6682ZM48.9406 29.2448H47.9539C47.3786 29.2448 46.827 29.0163 46.4202 28.6096C46.0135 28.2028 45.785 27.6512 45.785 27.076C45.785 26.5007 46.0135 25.9491 46.4202 25.5423C46.827 25.1356 47.3786 24.9071 47.9539 24.9071H48.9406C49.5158 24.9071 50.0675 25.1356 50.4742 25.5423C50.881 25.9491 51.1095 26.5007 51.1095 27.076C51.1095 27.6512 50.881 28.2028 50.4742 28.6096C50.0675 29.0163 49.5158 29.2448 48.9406 29.2448V29.2448Z" fill="white"/>
<path d="M39.4594 23.7877C39.4594 23.4908 39.3415 23.206 39.1316 22.9961C38.9216 22.7862 38.6369 22.6682 38.34 22.6682H20.989C20.6922 22.6682 20.4074 22.7862 20.1975 22.9961C19.9876 23.206 19.8696 23.4908 19.8696 23.7877V30.2243C19.8696 30.5212 19.9876 30.8059 20.1975 31.0159C20.4074 31.2258 20.6922 31.3437 20.989 31.3437H38.34C38.6369 31.3437 38.9216 31.2258 39.1316 31.0159C39.3415 30.8059 39.4594 30.5212 39.4594 30.2243V23.7877ZM37.2206 29.1049H22.1085V24.9071H37.2206V29.1049Z" fill="white"/>
</svg>
