<svg width="73" height="90" viewBox="0 0 73 90" fill="none" xmlns="http://www.w3.org/2000/svg">
<path d="M71.0573 28.1134C67.1847 11.6858 52.8008 0.27002 36.204 0.27002C16.2878 0.27002 0.244141 16.4192 0.244141 36.4664C0.244141 55.4 14.9047 70.9923 33.4378 72.3844V86.3061C33.4378 87.9767 34.5443 89.0905 36.204 89.0905C37.8637 89.0905 38.9701 87.9767 38.9701 86.3061V46.4901L51.971 33.4037C53.0774 32.2899 53.0774 30.6193 51.971 29.5056C50.8645 28.3919 49.2048 28.3919 48.0984 29.5056L38.9701 38.9724V30.6193L29.8418 21.431C28.7354 20.3173 27.0757 20.3173 25.9692 21.431C24.8628 22.5447 24.8628 24.2153 25.9692 25.3291L33.4378 32.8468V50.1097L22.9265 39.5292C21.82 38.4155 20.1604 38.4155 19.0539 39.5292C17.9474 40.643 17.9474 42.3136 19.0539 43.4273L33.4378 57.9059V66.8158C17.9474 65.4236 5.77642 52.3372 5.77642 36.4664C5.77642 19.482 19.3305 5.8387 36.204 5.8387C53.0774 5.8387 66.6315 19.482 66.6315 36.4664C66.6315 50.1097 57.5033 62.0824 44.5024 65.9805V71.8276C63.8654 67.0942 75.7598 47.6038 71.0573 28.1134Z" fill="white"/>
</svg>
