<svg width="66" height="67" viewBox="0 0 66 67" fill="none" xmlns="http://www.w3.org/2000/svg">
<path d="M49.8965 39.2296C49.4878 38.9997 49.0247 38.739 48.4665 38.4032C48.155 38.215 47.7634 37.9579 47.3485 37.6856C45.2184 36.2875 43.6045 35.2979 42.2306 35.2979C41.9088 35.2979 41.6044 35.3524 41.327 35.4595C40.1233 35.923 39.1349 37.1613 38.179 38.3587C37.8287 38.7973 37.3273 39.4255 37.0231 39.7061C35.8162 39.4867 33.2707 37.9098 30.5239 35.163C27.7738 32.4129 26.1966 29.8646 25.9801 28.6606C26.2605 28.3552 26.8934 27.8501 27.3348 27.4975C28.5277 26.5452 29.7612 25.5605 30.2272 24.3606C30.8218 22.8188 29.7321 20.975 28.0015 18.3384C27.7292 17.9234 27.4718 17.5315 27.2852 17.2225C26.948 16.6622 26.6875 16.1987 26.4576 15.7902C25.514 14.1132 24.8906 13.0048 22.5479 13.0048C21.0275 13.0048 18.8778 14.4416 17.4217 15.8664C15.3055 17.9376 14.1399 20.3288 14.1399 22.6042C14.1439 28.7844 17.593 35.8677 23.6029 42.0449C23.6132 42.0552 23.6236 42.058 23.6342 42.0683C29.8114 48.0784 36.8986 51.5157 43.0786 51.5157H43.081C45.3534 51.5157 47.7454 50.3635 49.8164 48.2484C51.2424 46.7925 52.6811 44.6584 52.6811 43.139C52.6812 40.7966 51.5735 40.1733 49.8965 39.2296V39.2296ZM43.0792 48.3228C37.8151 48.3189 31.3936 45.1287 25.8987 39.7887C20.558 34.2931 17.3678 27.8711 17.3644 22.6075C17.3644 19.4236 21.4961 16.3964 22.5766 16.2305C22.7973 16.2314 22.9131 16.2445 22.9682 16.2539C23.1111 16.4183 23.395 16.9229 23.6477 17.3722C23.8765 17.7788 24.1614 18.285 24.5241 18.8878C24.7434 19.2511 25.0168 19.6675 25.3062 20.1083C25.8539 20.9427 26.9548 22.62 27.1404 23.336C26.83 23.7753 25.8671 24.544 25.3235 24.978C23.932 26.089 22.7303 27.0482 22.7303 28.4039C22.7336 31.6786 26.9516 36.1508 28.2442 37.4434C29.5369 38.7361 34.0091 42.954 37.2907 42.9573C38.6377 42.9529 39.5929 41.7562 40.6992 40.3705C41.1354 39.8241 41.9088 38.8554 42.3499 38.5467C43.0651 38.7309 44.7445 39.8332 45.5796 40.3815C46.0203 40.6707 46.4366 40.944 46.8021 41.1647C47.4028 41.5261 47.9089 41.811 48.3156 42.0398C48.7648 42.2926 49.2695 42.5766 49.434 42.7195C49.4433 42.7744 49.4562 42.8902 49.4574 43.1107C49.2902 44.1903 46.262 48.3189 43.0792 48.3228V48.3228Z" fill="white"/>
<path d="M65.4652 33.0317C65.352 24.3193 61.8549 16.0865 55.6183 9.8498C49.2666 3.49812 40.8825 0 32.01 0C23.4453 0 15.433 3.29563 9.44892 9.27957C4.13871 14.5898 0.880804 21.6721 0.274784 29.2221C-0.29996 36.3854 1.52358 43.6344 5.41749 49.7294L0.100184 64.1024C-0.122942 64.7056 0.0337628 65.3839 0.4992 65.828C0.805032 66.12 1.20566 66.274 1.61257 66.274C1.82474 66.274 2.03884 66.2126 2.24181 66.1263L16.0903 60.2331C21.377 63.5236 27.422 65.2194 33.6293 65.2194H33.6299C42.1932 65.2194 50.2052 61.9632 56.1885 55.9799C62.2839 49.8844 65.5785 41.7598 65.4652 33.0317V33.0317ZM53.9083 53.7391C48.5336 59.1138 41.3316 62.0736 33.6291 62.0734C27.7651 62.0733 22.0599 60.3569 17.1302 57.1097C16.8629 56.9336 16.554 56.844 16.2433 56.844C16.03 56.844 15.8159 56.8862 15.6139 56.972L4.41955 61.7199L8.72408 50.0846C8.90416 49.5975 8.8387 49.0536 8.54835 48.6233C0.636398 36.9019 1.97403 21.3144 11.7289 11.5597C17.1039 6.18466 24.3065 3.22437 32.01 3.22437C40.0211 3.22437 47.5956 6.38699 53.3382 12.1297C58.9771 17.7685 62.1388 25.2065 62.241 33.0736C62.3431 40.9246 59.3837 48.2638 53.9083 53.7391Z" fill="white"/>
</svg>
