<svg width="76" height="60" viewBox="0 0 76 60" fill="none" xmlns="http://www.w3.org/2000/svg">
<path fill-rule="evenodd" clip-rule="evenodd" d="M37.8436 45.9875C34.0819 45.9875 31.0289 49.0404 31.0289 52.8021C31.0289 56.5638 34.0819 59.6167 37.8436 59.6167C41.6052 59.6167 44.6582 56.5638 44.6582 52.8021C44.6582 49.0404 41.6052 45.9875 37.8436 45.9875ZM37.8436 49.3947C39.7244 49.3947 41.2508 50.9211 41.2508 52.8019C41.2508 54.6828 39.7244 56.2092 37.8436 56.2092C35.9627 56.2092 34.4363 54.6828 34.4363 52.8019C34.4363 50.9211 35.9627 49.3947 37.8436 49.3947ZM24.5926 39.551C31.9064 32.2373 43.7809 32.2373 51.0946 39.551C51.7591 40.2154 52.8392 40.2154 53.5037 39.551C54.1698 38.8866 54.1698 37.8064 53.5037 37.142C44.861 28.4976 30.8264 28.4976 22.1838 37.142C21.5176 37.8064 21.5176 38.8866 22.1838 39.551C22.848 40.2154 23.9282 40.2154 24.5926 39.551V39.551ZM13.7506 28.7091C27.0475 15.4122 48.6396 15.4122 61.9366 28.7091C62.601 29.3735 63.6811 29.3735 64.3456 28.7091C65.0117 28.0447 65.0117 26.9645 64.3456 26.3001C49.7198 11.6726 25.9675 11.6726 11.3417 26.3001C10.6755 26.9645 10.6755 28.0447 11.3417 28.7091C12.0061 29.3735 13.0861 29.3735 13.7506 28.7091V28.7091ZM2.90865 17.867C22.1905 -1.41481 53.4968 -1.41481 72.7786 17.867C73.4431 18.5315 74.5232 18.5315 75.1876 17.867C75.8538 17.2026 75.8538 16.1224 75.1876 15.458C54.577 -5.15267 21.1105 -5.15267 0.499635 15.458C-0.166545 16.1224 -0.166545 17.2026 0.499635 17.867C1.16406 18.5315 2.24422 18.5315 2.90865 17.867V17.867Z" fill="white"/>
</svg>
