<svg width="55" height="24" viewBox="0 0 55 24" fill="none" xmlns="http://www.w3.org/2000/svg">
<path d="M43.4378 16.3282C44.3936 16.3277 45.3195 15.9958 46.058 15.3891C46.7965 14.7824 47.3018 13.9385 47.4877 13.001C47.6737 12.0636 47.5289 11.0906 47.0779 10.248C46.627 9.40533 45.8978 8.74511 45.0146 8.37982C44.1315 8.01452 43.149 7.96675 42.2345 8.24465C41.3201 8.52254 40.5303 9.1089 39.9997 9.90382C39.4692 10.6987 39.2306 11.653 39.3248 12.6041C39.4189 13.5552 39.8399 14.4442 40.5161 15.1197C40.8995 15.5036 41.355 15.808 41.8564 16.0153C42.3578 16.2227 42.8952 16.329 43.4378 16.3282V16.3282ZM42.1907 10.95C42.4374 10.7033 42.7517 10.5353 43.0938 10.4672C43.436 10.3992 43.7907 10.4341 44.113 10.5676C44.4353 10.7011 44.7108 10.9272 44.9046 11.2173C45.0984 11.5073 45.2019 11.8484 45.2019 12.1972C45.2019 12.5461 45.0984 12.8871 44.9046 13.1772C44.7108 13.4673 44.4353 13.6934 44.113 13.8269C43.7907 13.9604 43.436 13.9953 43.0938 13.9272C42.7517 13.8592 42.4374 13.6912 42.1907 13.4445C42.0263 13.281 41.8958 13.0867 41.8067 12.8727C41.7177 12.6586 41.6719 12.4291 41.6719 12.1972C41.6719 11.9654 41.7177 11.7359 41.8067 11.5218C41.8958 11.3078 42.0263 11.1134 42.1907 10.95V10.95Z" fill="white"/>
<path d="M3.69519 16.4455C3.8147 16.6169 3.9734 16.758 4.15839 16.8574C4.34337 16.9567 4.54944 17.0115 4.75983 17.0172L31.2181 17.0172C32.0093 18.7639 33.2174 20.2942 34.7385 21.4765C36.2597 22.6588 38.0483 23.4577 39.9505 23.8045C41.8527 24.1513 43.8115 24.0355 45.6586 23.4672C47.5056 22.899 49.1854 21.8951 50.5536 20.5421C51.7956 19.3171 52.7491 17.836 53.3461 16.2043C53.9432 14.5727 54.169 12.8308 54.0076 11.1029C53.8462 9.37494 53.3015 7.70354 52.4123 6.20788C51.5231 4.71223 50.3114 3.42917 48.8636 2.45022C47.4157 1.47128 45.7674 0.820567 44.0362 0.544498C42.305 0.268429 40.5336 0.373805 38.8483 0.853112C37.163 1.33242 35.6054 2.17385 34.2864 3.31738C32.9675 4.46091 31.9198 5.87838 31.2181 7.46867L20.7999 7.46867C20.5975 7.46502 20.3971 7.50825 20.2147 7.59491L18.486 8.43971L16.8645 8.43971L14.8945 5.9464C14.7838 5.80497 14.6446 5.68781 14.4858 5.60235C14.327 5.51689 14.152 5.46497 13.9719 5.4499C13.7918 5.43482 13.6104 5.45691 13.4394 5.51477C13.2683 5.57263 13.1113 5.66499 12.9781 5.78602L10.5857 7.97038L8.04598 5.76239C7.78681 5.53708 7.44821 5.42217 7.10386 5.44269C6.75951 5.46321 6.43728 5.61749 6.20731 5.87196L1.27826 11.3281C1.08009 11.5502 0.963468 11.832 0.947263 12.1278C0.931058 12.4237 1.01622 12.7163 1.18896 12.9583L3.69519 16.4455ZM35.5417 5.67823C36.8433 4.39015 38.5017 3.51296 40.307 3.15758C42.1124 2.8022 43.9838 2.98459 45.6844 3.6817C47.385 4.37881 48.8386 5.55932 49.8612 7.07395C50.8839 8.58857 51.4297 10.3693 51.4297 12.1909C51.4297 14.0125 50.8839 15.7933 49.8612 17.3079C48.8386 18.8225 47.385 20.003 45.6844 20.7001C43.9838 21.3973 42.1124 21.5796 40.307 21.2243C38.5017 20.8689 36.8433 19.9917 35.5417 18.7036C34.6702 17.8524 33.9781 16.8384 33.5058 15.7204C33.0334 14.6024 32.7902 13.4027 32.7902 12.1909C32.7902 10.9791 33.0334 9.77942 33.5058 8.66142C33.9781 7.54342 34.6702 6.5294 35.5417 5.67823ZM7.29386 8.55413L9.74449 10.6836C9.98736 10.8945 10.3005 11.009 10.6236 11.005C10.9467 11.001 11.2568 10.8789 11.4944 10.6621L13.7114 8.63683L15.1996 10.5224C15.3214 10.6781 15.4771 10.8045 15.6551 10.8923C15.8331 10.98 16.0289 11.0268 16.2278 11.0292L18.7954 11.0292C18.9977 11.0328 19.1981 10.9896 19.3805 10.9029L21.1088 10.0581L30.4089 10.0581C30.1381 11.5023 30.1381 12.9836 30.4089 14.4278L5.43312 14.4278L3.92676 12.3111L7.29386 8.55413Z" fill="white"/>
</svg>
