<svg width="47" height="39" viewBox="0 0 47 39" fill="none" xmlns="http://www.w3.org/2000/svg">
<path d="M43.5499 13.3153L39.9839 2.84387C39.6955 2.0074 39.1797 1.28686 38.5054 0.778641C37.8311 0.270422 37.0305 -0.00123772 36.2107 4.23951e-06H10.7815C9.96186 -0.00108454 9.16141 0.270648 8.48726 0.778858C7.81311 1.28707 7.29739 2.00752 7.00909 2.84387L3.48607 13.1971L1.98704 14.6853C1.3683 15.2553 0.870269 15.9647 0.527238 16.7647C0.184208 17.5646 0.0043317 18.4361 0 19.3191V37.9879C0.010766 38.2499 0.112638 38.4976 0.284913 38.6806C0.457188 38.8636 0.686939 38.9683 0.927474 38.9734H9.85013C10.0842 38.9657 10.3061 38.8581 10.468 38.6738C10.63 38.4894 10.719 38.2431 10.7159 37.9879V32.299H35.6469V37.9879C35.6438 38.2431 35.7328 38.4894 35.8948 38.6738C36.0567 38.8581 36.2786 38.9657 36.5127 38.9734H45.4353C45.6759 38.9683 45.9056 38.8636 46.0779 38.6806C46.2502 38.4976 46.352 38.2499 46.3628 37.9879V18.9265C46.3566 18.0994 46.1975 17.2821 45.8951 16.5235C45.5926 15.7649 45.1529 15.0805 44.6023 14.5113L43.5499 13.3153ZM8.64929 3.49366C8.81327 3.02332 9.10557 2.61906 9.48682 2.33536C9.86807 2.05166 10.3199 1.90214 10.7815 1.90696H36.2107C36.6723 1.90214 37.1241 2.05166 37.5054 2.33536C37.8866 2.61906 38.1789 3.02332 38.3429 3.49366L41.5015 12.7528H5.49115L8.64929 3.49366ZM8.96639 37.0664H1.74954V32.299H8.96639V37.0664ZM37.3964 37.0664V32.299H44.6133V37.0664H37.3964ZM44.6133 30.3921H1.74954V19.3191C1.75408 18.7084 1.88029 18.106 2.11944 17.5537C2.35859 17.0013 2.70497 16.5122 3.13463 16.1202C3.1448 16.1109 3.16743 16.0885 3.1776 16.0787L4.578 14.6597H42.3299L43.3162 15.8214C43.3285 15.8357 43.3676 15.8561 43.3807 15.8691C43.7647 16.2617 44.0719 16.735 44.2837 17.2605C44.4955 17.7859 44.6076 18.3526 44.6133 18.9265V30.3921Z" fill="white"/>
<path d="M38.2448 19.3076H37.4737C36.5602 19.3076 35.6841 19.7032 35.0381 20.4072C34.3922 21.1113 34.0293 22.0662 34.0293 23.0619C34.0293 24.0576 34.3922 25.0126 35.0381 25.7166C35.6841 26.4207 36.5602 26.8162 37.4737 26.8162H38.2448C39.1583 26.8162 40.0344 26.4207 40.6804 25.7166C41.3263 25.0126 41.6892 24.0576 41.6892 23.0619C41.6892 22.0662 41.3263 21.1113 40.6804 20.4072C40.0344 19.7032 39.1583 19.3076 38.2448 19.3076ZM38.2448 24.9093H37.4737C37.0242 24.9093 36.5931 24.7147 36.2753 24.3682C35.9574 24.0218 35.7788 23.5519 35.7788 23.0619C35.7788 22.572 35.9574 22.1021 36.2753 21.7557C36.5931 21.4092 37.0242 21.2146 37.4737 21.2146H38.2448C38.6943 21.2146 39.1254 21.4092 39.4433 21.7557C39.7611 22.1021 39.9397 22.572 39.9397 23.0619C39.9397 23.5519 39.7611 24.0218 39.4433 24.3682C39.1254 24.7147 38.6943 24.9093 38.2448 24.9093Z" fill="white"/>
<path d="M30.8358 20.2611C30.8358 20.0082 30.7437 19.7657 30.5796 19.5869C30.4155 19.4081 30.193 19.3076 29.961 19.3076H16.4021C16.1701 19.3076 15.9476 19.4081 15.7836 19.5869C15.6195 19.7657 15.5273 20.0082 15.5273 20.2611V25.7436C15.5273 25.9965 15.6195 26.239 15.7836 26.4178C15.9476 26.5966 16.1701 26.6971 16.4021 26.6971H29.961C30.193 26.6971 30.4155 26.5966 30.5796 26.4178C30.7437 26.239 30.8358 25.9965 30.8358 25.7436V20.2611ZM29.0863 24.7901H17.2769V21.2146H29.0863V24.7901Z" fill="white"/>
</svg>
