<svg width="56" height="56" viewBox="0 0 56 56" fill="none" xmlns="http://www.w3.org/2000/svg">
<path d="M28 0C22.4621 0 17.0486 1.64217 12.444 4.71885C7.83947 7.79553 4.25064 12.1685 2.13138 17.2849C0.0121315 22.4012 -0.542361 28.0311 0.538025 33.4625C1.61841 38.894 4.28515 43.8831 8.20102 47.799C12.1169 51.7149 17.106 54.3816 22.5375 55.462C27.9689 56.5424 33.5988 55.9879 38.7151 53.8686C43.8315 51.7494 48.2045 48.1605 51.2812 43.556C54.3578 38.9514 56 33.5379 56 28C55.9852 20.5785 53.0305 13.4652 47.7826 8.21735C42.5348 2.96954 35.4215 0.0147987 28 0ZM28 53.76C21.389 53.7203 15.0463 51.1404 10.2846 46.5542C5.52294 41.9681 2.70678 35.7267 2.41899 29.1218C2.1312 22.517 4.3938 16.0543 8.73854 11.0713C13.0833 6.08835 19.1775 2.96655 25.76 2.352C22.456 7.476 22.4 12.096 22.4 12.32C22.4 13.8052 22.99 15.2296 24.0402 16.2798C25.0904 17.33 26.5148 17.92 28 17.92C29.4852 17.92 30.9096 17.33 31.9598 16.2798C33.01 15.2296 33.6 13.8052 33.6 12.32C33.6 12.023 33.482 11.7381 33.272 11.528C33.0619 11.318 32.7771 11.2 32.48 11.2C32.183 11.2 31.8981 11.318 31.688 11.528C31.478 11.7381 31.36 12.023 31.36 12.32C31.36 13.2111 31.006 14.0658 30.3759 14.6959C29.7458 15.326 28.8911 15.68 28 15.68C27.1089 15.68 26.2542 15.326 25.6241 14.6959C24.994 14.0658 24.64 13.2111 24.64 12.32C24.64 12.264 24.724 7.308 28.532 2.24C35.364 2.31055 41.8881 5.0922 46.6692 9.97302C51.4502 14.8538 54.0965 21.434 54.026 28.266C53.9555 35.098 51.1738 41.6221 46.293 46.4031C41.4122 51.1842 34.832 53.8305 28 53.76ZM17.92 30.24C17.477 30.24 17.0439 30.1086 16.6755 29.8625C16.3072 29.6164 16.0201 29.2665 15.8505 28.8572C15.681 28.4479 15.6366 27.9975 15.7231 27.563C15.8095 27.1285 16.0228 26.7293 16.3361 26.4161C16.6494 26.1028 17.0485 25.8895 17.483 25.803C17.9175 25.7166 18.3679 25.761 18.7772 25.9305C19.1865 26.1 19.5364 26.3871 19.7825 26.7555C20.0286 27.1239 20.16 27.557 20.16 28C20.16 28.5941 19.924 29.1638 19.5039 29.5839C19.0838 30.004 18.5141 30.24 17.92 30.24ZM40.32 28C40.32 28.443 40.1886 28.8761 39.9425 29.2445C39.6964 29.6128 39.3465 29.8999 38.9372 30.0695C38.5279 30.239 38.0775 30.2834 37.643 30.197C37.2085 30.1105 36.8094 29.8972 36.4961 29.5839C36.1828 29.2706 35.9695 28.8715 35.883 28.437C35.7966 28.0025 35.841 27.5521 36.0105 27.1428C36.1801 26.7335 36.4672 26.3836 36.8355 26.1375C37.2039 25.8914 37.637 25.76 38.08 25.76C38.6741 25.76 39.2438 25.996 39.6639 26.4161C40.084 26.8362 40.32 27.4059 40.32 28ZM36.372 38.584C36.5329 38.8298 36.5908 39.129 36.5332 39.417C36.4755 39.7051 36.3071 39.959 36.064 40.124C33.6749 41.7132 30.8694 42.5611 28 42.5611C25.1306 42.5611 22.3251 41.7132 19.936 40.124C19.693 39.959 19.5245 39.7051 19.4669 39.417C19.4093 39.129 19.4671 38.8298 19.628 38.584C19.7071 38.4567 19.8116 38.347 19.935 38.2618C20.0583 38.1766 20.1979 38.1178 20.345 38.0889C20.4921 38.06 20.6436 38.0617 20.79 38.0939C20.9364 38.1261 21.0746 38.1881 21.196 38.276C23.2148 39.609 25.5808 40.3197 28 40.3197C30.4192 40.3197 32.7852 39.609 34.804 38.276C34.9254 38.1881 35.0636 38.1261 35.21 38.0939C35.3564 38.0617 35.5079 38.06 35.655 38.0889C35.8021 38.1178 35.9417 38.1766 36.065 38.2618C36.1884 38.347 36.2929 38.4567 36.372 38.584Z" fill="white"/>
</svg>
