<svg width="49" height="55" viewBox="0 0 49 55" fill="none" xmlns="http://www.w3.org/2000/svg">
<path d="M1.06619 10.2761H5.33095L8.12064 17.4712C8.18588 22.5965 10.1052 27.4883 13.4639 31.0897C16.8226 34.691 21.3511 36.7129 26.071 36.7185H31.0453C35.805 36.7127 40.3683 34.657 43.7342 31.0023C47.1 27.3476 48.9938 22.3923 49 17.2234C48.9952 12.6571 47.3227 8.27925 44.3495 5.05037C41.3763 1.82148 37.3452 0.00520973 33.1404 0H29.4748C29.1921 0 28.9209 0.12199 28.7209 0.339133C28.521 0.556277 28.4087 0.850787 28.4087 1.15787V16.0655H9.89318L7.02407 8.66727C6.94238 8.45751 6.80556 8.27857 6.63071 8.15284C6.45586 8.02711 6.25074 7.96016 6.04104 7.96039H1.06619C0.783419 7.96039 0.51223 8.08237 0.31228 8.29952C0.112331 8.51666 0 8.81117 0 9.11826C0 9.42535 0.112331 9.71986 0.31228 9.937C0.51223 10.1541 0.783419 10.2761 1.06619 10.2761ZM30.541 2.31285H33.1404C36.5957 2.31764 39.9227 3.73542 42.4588 6.28392C44.995 8.83242 46.5544 12.3247 46.8266 16.0655H30.541V2.31285ZM29.4748 18.3784H46.8324C46.557 22.7233 44.7747 26.7931 41.8448 29.767C38.915 32.7409 35.0557 34.3975 31.0453 34.4028H26.071C22.0612 34.3975 18.2023 32.7413 15.2726 29.768C12.3429 26.7947 10.5604 22.7256 10.2845 18.3813L29.4748 18.3784Z" fill="white"/>
<path d="M33.25 46.2578C33.2503 47.861 33.6867 49.4281 34.5041 50.761C35.3214 52.0938 36.483 53.1326 37.8419 53.746C39.2008 54.3594 40.6961 54.5198 42.1387 54.207C43.5812 53.8942 44.9063 53.1222 45.9464 51.9886C46.9865 50.855 47.6949 49.4108 47.9819 47.8384C48.269 46.2661 48.122 44.6362 47.5593 43.155C46.9967 41.6738 46.0437 40.4076 44.8209 39.5166C43.5982 38.6257 42.1605 38.1499 40.6896 38.1494C38.7171 38.1511 36.8258 39.0059 35.4309 40.5261C34.0361 42.0464 33.2517 44.1078 33.25 46.2578ZM46.0046 46.2578C46.0043 47.4042 45.6921 48.5248 45.1075 49.4778C44.5229 50.4308 43.6921 51.1734 42.7202 51.6118C41.7484 52.0501 40.6791 52.1645 39.6476 51.9404C38.6161 51.7163 37.6687 51.1639 36.9253 50.3529C36.1819 49.542 35.6758 48.5089 35.4711 47.3844C35.2663 46.26 35.3721 45.0946 35.775 44.0356C36.178 42.9767 36.8599 42.0718 37.7347 41.4353C38.6095 40.7988 39.6378 40.4594 40.6896 40.46C42.0997 40.4618 43.4514 41.0733 44.4483 42.1603C45.4451 43.2473 46.0056 44.7209 46.0067 46.2578H46.0046Z" fill="white"/>
<path d="M8.75 46.2578C8.75031 47.8611 9.18678 49.4283 10.0042 50.7612C10.8217 52.0941 11.9833 53.1329 13.3424 53.7462C14.7014 54.3595 16.1968 54.5198 17.6395 54.2068C19.0821 53.8938 20.4072 53.1216 21.4472 51.9878C22.4872 50.854 23.1954 49.4095 23.4822 47.837C23.7691 46.2645 23.6217 44.6346 23.0587 43.1534C22.4957 41.6722 21.5424 40.4062 20.3194 39.5155C19.0963 38.6248 17.6584 38.1494 16.1875 38.1494C14.2153 38.1517 12.3245 39.0068 10.9302 40.527C9.53576 42.0471 8.75168 44.1082 8.75 46.2578ZM21.5046 46.2578C21.5043 47.4041 21.1921 48.5246 20.6076 49.4776C20.0231 50.4305 19.1925 51.1731 18.2207 51.6115C17.249 52.05 16.1798 52.1645 15.1484 51.9406C14.1169 51.7167 13.1696 51.1645 12.4261 50.3537C11.6826 49.543 11.1763 48.5102 10.9713 47.3859C10.7663 46.2615 10.8718 45.0962 11.2744 44.0372C11.677 42.9782 12.3587 42.0732 13.2332 41.4364C14.1077 40.7997 15.1358 40.4599 16.1875 40.46C17.5975 40.4618 18.9493 41.0733 19.9462 42.1603C20.943 43.2473 21.5035 44.7209 21.5046 46.2578Z" fill="white"/>
</svg>
