<svg width="35" height="50" viewBox="0 0 35 50" fill="none" xmlns="http://www.w3.org/2000/svg">
<path d="M19.5 25V25.5H20H26.5284L15.5 40.9398V30V29.5H15H8.47159L19.5 14.0602V25ZM14.5 5V9.5H5H4.5V10V45V45.5H5H30H30.5V45V10V9.5H30H20.5V5V4.5H20H15H14.5V5ZM10 5.5H10.5V5V2.5C10.5 1.96957 10.7107 1.46086 11.0858 1.08579C11.4609 0.710714 11.9696 0.5 12.5 0.5H22.5C23.0304 0.5 23.5391 0.710713 23.9142 1.08579C24.2893 1.46086 24.5 1.96957 24.5 2.5V5V5.5H25H32.5C33.0304 5.5 33.5391 5.71071 33.9142 6.08579C34.2893 6.46086 34.5 6.96957 34.5 7.5V47.5C34.5 48.0304 34.2893 48.5391 33.9142 48.9142C33.5391 49.2893 33.0304 49.5 32.5 49.5H2.5C1.96957 49.5 1.46086 49.2893 1.08579 48.9142C0.710714 48.5391 0.5 48.0304 0.5 47.5V7.5C0.5 6.96957 0.710714 6.46086 1.08579 6.08579C1.46086 5.71071 1.96957 5.5 2.5 5.5H10Z" stroke="white"/>
</svg>
