<svg width="37" height="52" viewBox="0 0 37 52" fill="none" xmlns="http://www.w3.org/2000/svg">
<path d="M1 21H36M18.5 1V6M18.5 6C21.8152 6 24.9946 7.31696 27.3388 9.66117C29.683 12.0054 31 15.1848 31 18.5V46C31 47.3261 30.4732 48.5979 29.5355 49.5355C28.5979 50.4732 27.3261 51 26 51H11C9.67392 51 8.40215 50.4732 7.46447 49.5355C6.52678 48.5979 6 47.3261 6 46V18.5C6 15.1848 7.31696 12.0054 9.66117 9.66117C12.0054 7.31696 15.1848 6 18.5 6V6Z" stroke="white" stroke-width="2" stroke-linecap="round" stroke-linejoin="round"/>
</svg>
