<svg width="52" height="33" viewBox="0 0 52 33" fill="none" xmlns="http://www.w3.org/2000/svg">
<path d="M48.5294 0H2.64706C1.94502 0 1.27173 0.303978 0.775306 0.845063C0.278886 1.38615 0 2.12002 0 2.88523V29.814C0 30.5792 0.278886 31.3131 0.775306 31.8542C1.27173 32.3952 1.94502 32.6992 2.64706 32.6992H48.5294C49.2315 32.6992 49.9047 32.3952 50.4012 31.8542C50.8976 31.3131 51.1765 30.5792 51.1765 29.814V2.88523C51.1765 2.12002 50.8976 1.38615 50.4012 0.845063C49.9047 0.303978 49.2315 0 48.5294 0ZM15.3309 30.7757L1.76471 17.8403V14.8589L15.3309 1.92348H35.8456L49.4118 14.8589V17.8403L35.8456 30.7757H15.3309ZM49.4118 2.88523V12.3103L38.5147 1.92348H48.5294C48.7634 1.92348 48.9879 2.02481 49.1533 2.20517C49.3188 2.38553 49.4118 2.63016 49.4118 2.88523ZM2.64706 1.92348H12.6618L1.76471 12.3103V2.88523C1.76471 2.63016 1.85767 2.38553 2.02314 2.20517C2.18861 2.02481 2.41304 1.92348 2.64706 1.92348ZM1.76471 29.814V20.3889L12.6618 30.7757H2.64706C2.41304 30.7757 2.18861 30.6744 2.02314 30.4941C1.85767 30.3137 1.76471 30.0691 1.76471 29.814ZM48.5294 30.7757H38.5147L49.4118 20.3889V29.814C49.4118 30.0691 49.3188 30.3137 49.1533 30.4941C48.9879 30.6744 48.7634 30.7757 48.5294 30.7757ZM25.5882 7.69394C24.0176 7.69394 22.4823 8.20158 21.1764 9.15268C19.8704 10.1038 18.8526 11.4556 18.2515 13.0372C17.6505 14.6188 17.4932 16.3592 17.7996 18.0383C18.1061 19.7173 18.8624 21.2596 19.973 22.4701C21.0836 23.6806 22.4986 24.505 24.039 24.839C25.5794 25.173 27.1761 25.0015 28.6272 24.3464C30.0783 23.6913 31.3185 22.5819 32.1911 21.1585C33.0637 19.735 33.5294 18.0615 33.5294 16.3496C33.5294 14.054 32.6928 11.8524 31.2035 10.2291C29.7142 8.60587 27.6944 7.69394 25.5882 7.69394ZM25.5882 23.0818C24.3666 23.0818 23.1725 22.687 22.1568 21.9472C21.1411 21.2075 20.3494 20.1561 19.8819 18.9259C19.4144 17.6958 19.2921 16.3421 19.5304 15.0362C19.7688 13.7303 20.357 12.5307 21.2208 11.5892C22.0846 10.6477 23.1851 10.0065 24.3833 9.74678C25.5814 9.48701 26.8233 9.62033 27.9519 10.1299C29.0805 10.6394 30.0451 11.5023 30.7238 12.6094C31.4025 13.7165 31.7647 15.0181 31.7647 16.3496C31.7589 18.1332 31.1063 19.8418 29.9492 21.103C28.7922 22.3642 27.2245 23.0755 25.5882 23.0818Z" fill="white"/>
</svg>
