<svg width="43" height="49" viewBox="0 0 43 49" fill="none" xmlns="http://www.w3.org/2000/svg">
<path d="M8.97222 11.5005C7.19556 11.5922 5.55555 12.7385 4.91778 14.5268L1 25.3712V48H10.1111V26.999L13.3456 18.0576L18.5389 20.4878H26.0556V15.9024H19.5639L10.7717 11.7756C10.1939 11.5726 9.58378 11.4793 8.97222 11.5005M14.6667 36.5366H42V41.122H14.6667M16.9444 5.58537C16.9444 6.80148 16.4645 7.96779 15.6102 8.82771C14.7558 9.68763 13.5971 10.1707 12.3889 10.1707C11.1807 10.1707 10.022 9.68763 9.16762 8.82771C8.31329 7.96779 7.83333 6.80148 7.83333 5.58537C7.83333 4.36925 8.31329 3.20295 9.16762 2.34302C10.022 1.4831 11.1807 1 12.3889 1C13.5971 1 14.7558 1.4831 15.6102 2.34302C16.4645 3.20295 16.9444 4.36925 16.9444 5.58537ZM42 30.8049C42 31.717 41.64 32.5917 40.9993 33.2366C40.3585 33.8816 39.4895 34.2439 38.5833 34.2439C37.6772 34.2439 36.8081 33.8816 36.1674 33.2366C35.5266 32.5917 35.1667 31.717 35.1667 30.8049C35.1667 29.8928 35.5266 29.0181 36.1674 28.3731C36.8081 27.7282 37.6772 27.3659 38.5833 27.3659C39.4895 27.3659 40.3585 27.7282 40.9993 28.3731C41.64 29.0181 42 29.8928 42 30.8049ZM14.6667 22.7805V27.3659H19.2222V29.6585C19.2222 32.2034 21.2494 34.2439 23.7778 34.2439H28.3333C30.8617 34.2439 32.8889 32.2034 32.8889 29.6585V22.7805H28.3333V27.3659H23.7778V25.0732C23.7778 24.4651 23.5378 23.882 23.1106 23.452C22.6835 23.022 22.1041 22.7805 21.5 22.7805H14.6667Z" stroke="white" stroke-width="2"/>
</svg>
