<svg width="50" height="50" viewBox="0 0 50 50" fill="none" xmlns="http://www.w3.org/2000/svg">
<path d="M25.3999 34.5C22.9123 34.4972 20.4513 35.0115 18.1729 36.0101C15.8944 37.0088 13.8483 38.4702 12.1644 40.3016L11.8018 40.696L12.2203 41.0305C15.8478 43.9307 20.3558 45.5072 25.0001 45.5C29.8493 45.5068 34.5428 43.7881 38.2409 40.6513L38.6495 40.3047L38.2756 39.921C36.6007 38.2025 34.5983 36.8373 32.3866 35.9062C30.1751 34.9751 27.7994 34.497 25.3999 34.5ZM25.3999 34.5C25.4001 34.5 25.4004 34.5 25.4006 34.5L25.4 35L25.3994 34.5C25.3995 34.5 25.3997 34.5 25.3999 34.5ZM9.54 37.2498C11.5673 35.1367 13.9977 33.4504 16.6882 32.291C19.4392 31.1055 22.4038 30.496 25.3993 30.5L25.4007 30.5C28.2889 30.4962 31.1495 31.0631 33.8181 32.1679C36.4867 33.2728 38.9108 34.8939 40.9511 36.9382L41.3695 37.3574L41.7126 36.8746C43.9063 33.7871 45.2018 30.1522 45.4553 26.3732C45.7088 22.5943 44.9105 18.8189 43.1488 15.4661C41.3872 12.1132 38.7312 9.31395 35.4754 7.3788C32.2196 5.44366 28.4913 4.44831 24.7043 4.50318C20.9172 4.55806 17.2193 5.661 14.021 7.68966C10.8226 9.71832 8.2488 12.5934 6.58505 15.9959C4.92131 19.3983 4.23269 23.1952 4.59559 26.9653C4.9585 30.7353 6.35874 34.3311 8.64097 37.3538L9.54 38.5445V37.2498ZM25 49.5C11.4686 49.5 0.5 38.5314 0.5 25C0.5 11.4686 11.4686 0.5 25 0.5C38.5314 0.5 49.5 11.4686 49.5 25C49.5 38.5314 38.5314 49.5 25 49.5ZM25 27C22.4804 27 20.0641 25.9991 18.2825 24.2175C16.5009 22.4359 15.5 20.0196 15.5 17.5C15.5 14.9804 16.5009 12.5641 18.2825 10.7825C20.0641 9.00089 22.4804 8 25 8C27.5196 8 29.9359 9.00089 31.7175 10.7825C33.4991 12.5641 34.5 14.9804 34.5 17.5C34.5 20.0196 33.4991 22.4359 31.7175 24.2175C29.9359 25.9991 27.5196 27 25 27ZM25 23C26.4587 23 27.8576 22.4205 28.8891 21.3891C29.9205 20.3576 30.5 18.9587 30.5 17.5C30.5 16.0413 29.9205 14.6424 28.8891 13.6109C27.8576 12.5795 26.4587 12 25 12C23.5413 12 22.1424 12.5795 21.1109 13.6109C20.0795 14.6424 19.5 16.0413 19.5 17.5C19.5 18.9587 20.0795 20.3576 21.1109 21.3891C22.1424 22.4205 23.5413 23 25 23Z" stroke="white"/>
</svg>
