<svg width="63" height="59" viewBox="0 0 63 59" fill="none" xmlns="http://www.w3.org/2000/svg">
<path d="M0.0527344 28.0405C0.13437 28.0087 0.215146 27.9494 0.296782 27.9494C3.15231 27.9442 6.00697 27.9468 8.8625 27.9425C9.03436 27.9425 9.07991 28.0087 9.08163 28.172C9.13147 31.5147 9.89111 34.6916 11.3236 37.7087C12.4931 40.1715 14.0313 42.3783 15.9442 44.3221C18.346 46.7634 21.131 48.6161 24.3604 49.7822C26.1787 50.4387 28.0511 50.8305 29.9838 50.9362C34.4686 51.182 38.5813 50.0116 42.3125 47.56C47.2939 44.2877 50.5963 39.7427 52.2823 34.0291C52.8434 32.1283 53.1201 30.1793 53.133 28.1952C53.1347 27.9906 53.2087 27.9417 53.3977 27.9417C56.2317 27.9459 59.0649 27.9459 61.899 27.9417C62.0837 27.9417 62.1439 27.9932 62.1422 28.1866C62.0622 35.2639 59.8409 41.5997 55.4704 47.1552C51.6112 52.0602 46.6847 55.4864 40.7571 57.4576C38.7798 58.115 36.7526 58.5507 34.6817 58.7887C33.1658 58.9632 31.6448 59.0371 30.1213 58.9821C24.3561 58.7741 19.0386 57.1225 14.204 53.9679C9.63503 50.9861 6.08775 47.0641 3.55877 42.2296C2.10909 39.4583 1.114 36.5289 0.564031 33.4482C0.271002 31.8052 0.101716 30.1518 0.0845293 28.4822C0.0845293 28.4203 0.0639056 28.3593 0.0527344 28.2983C0.0527344 28.2123 0.0527344 28.1264 0.0527344 28.0405H0.0527344Z" fill="white"/>
<path d="M45.909 0.00171508C45.9262 0.0902252 45.9597 0.179598 45.9597 0.268108C45.9623 11.759 45.9614 23.2507 45.9657 34.7415C45.9657 34.9495 45.9013 35.0096 45.6959 35.0096C42.8627 35.0045 40.0295 35.0062 37.1955 35.0053C36.936 35.0053 36.9257 34.9933 36.9257 34.72C36.9257 33.5892 36.9257 32.4591 36.9257 31.3283C36.9257 31.2527 36.9257 31.1762 36.9257 31.1006C36.8896 31.0731 36.8535 31.0456 36.8182 31.0181C36.8036 31.0731 36.8028 31.1384 36.7727 31.1822C35.2019 33.4542 33.0304 34.8506 30.3819 35.5364C29.0053 35.893 27.6029 35.9334 26.1902 35.8165C24.7912 35.7005 23.4395 35.4023 22.1582 34.818C20.0151 33.8418 18.4777 32.2443 17.4096 30.1699C16.6208 28.6386 16.1524 27.0033 15.8611 25.3139C15.5715 23.6331 15.465 21.9385 15.4658 20.2336C15.4718 13.5936 15.4675 6.95363 15.4718 0.313649C15.4718 0.209671 15.5243 0.105693 15.5526 0.00171508C18.5723 0.00171508 21.5928 0.00171508 24.6124 0.00171508C24.6408 0.105693 24.6932 0.209671 24.6932 0.313649C24.6975 7.23291 24.6932 14.1522 24.7018 21.0714C24.7018 21.5982 24.7388 22.1318 24.8299 22.6491C25.1349 24.3772 25.9753 25.7779 27.4877 26.7189C28.7363 27.4957 30.1035 27.7071 31.5463 27.4897C33.4385 27.2053 34.8891 26.26 35.8429 24.5903C36.4788 23.4775 36.7254 22.2624 36.7263 20.9906C36.7263 15.6886 36.7263 10.3866 36.7263 5.08374C36.7263 3.48111 36.7246 1.87847 36.7297 0.274979C36.7297 0.183031 36.7796 0.0919474 36.8071 0C39.8413 0 42.8756 0 45.9099 0L45.909 0.00171508Z" fill="white"/>
</svg>
