<svg width="1440" height="1000" viewBox="0 0 1440 1000" fill="none" xmlns="http://www.w3.org/2000/svg">
<g clip-path="url(#clip0_304_2523)">
<rect width="1440" height="1000" fill="white"/>
<rect width="1440" height="1000" fill="url(#paint0_linear_304_2523)" fill-opacity="0.2"/>
<path opacity="0.3" d="M-284.607 904.004C-304.148 962.206 -310.361 1019.79 -310.148 1070.06C-310.129 1074.25 -310.077 1078.39 -309.968 1082.49C-309.954 1083.14 -309.932 1083.8 -309.914 1084.45C-308.886 1119.73 -304.073 1150.73 -300.56 1175.34C-298.514 1189.61 -284.214 1223.72 -246.538 1274.28C-242.679 1279.47 -238.562 1284.83 -234.192 1290.37C-155.675 1389.76 6.1337 1543.97 320.806 1731.96C574.56 1883.57 1076.38 2109.28 1370.05 2143.04C1450.73 2152.31 1578.36 2086.32 1578.36 2086.32C1590.99 2076.61 1602.92 2066.97 1614.13 2057.42C1615.15 2056.57 1616.15 2055.72 1617.13 2054.87C1622.79 2050.01 1628.26 2045.18 1633.56 2040.38C1633.65 2040.28 1633.75 2040.19 1633.83 2040.09C1638.1 2035.57 1642.11 2031.08 1645.89 2026.62C1648.22 2023.86 1650.45 2021.11 1652.6 2018.38C1663.32 2004.76 1671.84 1991.35 1678.56 1978.11C1679.72 1975.85 1680.81 1973.59 1681.87 1971.35C1685.26 1964.05 1688.11 1956.8 1690.49 1949.6C1692.15 1944.58 1693.59 1939.59 1694.81 1934.61C1694.95 1934.06 1695.09 1933.49 1695.22 1932.94C1696.43 1927.87 1697.43 1922.8 1698.23 1917.75C1698.48 1916.28 1698.7 1914.81 1698.91 1913.34C1699.57 1908.6 1700.08 1903.87 1700.43 1899.15C1700.46 1898.99 1700.46 1898.81 1700.48 1898.65C1701.14 1889.82 1701.31 1881 1701.12 1872.19C1700.86 1859.18 1699.79 1846.19 1698.35 1833.12C1696.29 1814.47 1693.46 1795.67 1691.03 1776.57C1682.82 1711.94 1679.29 1643.67 1726.21 1564.38C1735.31 1548.98 1746.31 1533.19 1759.55 1516.91C1774.03 1499.12 1787.05 1481.21 1798.72 1463.24C1848.37 1386.72 1873.11 1308.98 1878.12 1233.47C1879.19 1217.22 1879.34 1201.06 1878.65 1185.06C1876.08 1126.63 1862.02 1070.02 1838.95 1016.9C1819.07 971.09 1792.48 927.877 1760.82 888.334C1745.94 869.728 1729.93 851.938 1712.96 835.07C1690.21 812.465 1665.76 791.513 1639.99 772.479C1474.75 650.47 1255.32 607.284 1087.3 713.079C865.756 852.574 653.687 792.149 578.897 727.79C563.225 714.299 547.21 701.078 530.785 688.337C430.579 610.698 314.834 551.698 166.804 569.03C166.754 569.035 166.688 569.033 166.635 569.047C166.604 569.052 166.585 569.052 166.546 569.054C153.827 570.557 140.867 572.607 127.661 575.277C122.89 576.23 118.084 577.28 113.246 578.402C104.033 580.524 94.6913 582.95 85.2279 585.681C54.0756 594.664 21.5877 606.929 -12.3691 622.892C-17.0901 625.105 -21.8277 627.397 -26.598 629.759C-26.598 629.759 -26.6016 629.767 -26.6052 629.775C-28.9145 630.905 -31.2233 632.055 -33.5307 633.243C-40.554 636.799 -47.6337 640.52 -54.782 644.391C-60.8531 647.699 -66.964 651.093 -73.1435 654.637C-93.5451 666.299 -112.262 678.649 -129.42 691.543C-146.193 704.138 -161.5 717.272 -175.434 730.799C-176.53 731.858 -177.61 732.924 -178.69 733.99C-179.312 734.6 -179.919 735.216 -180.523 735.825C-188.338 743.637 -195.703 751.589 -202.643 759.651C-205.969 763.514 -209.194 767.386 -212.317 771.305C-218.383 778.853 -224.089 786.491 -229.48 794.187C-254.411 829.923 -272.2 867.109 -284.594 904.039L-284.607 904.004Z" fill="#8BCCBF"/>
<path d="M660.937 253.796C661.41 250.84 661.647 247.884 661.41 244.81C660.228 226.603 645.567 211.706 627.242 210.169C624.049 209.932 620.975 210.051 618.02 210.524C611.28 211.588 604.541 209.578 599.93 204.494C599.694 204.257 599.457 203.903 599.103 203.666C594.965 199.055 593.191 192.789 594.255 186.759C595.083 182.148 595.319 177.419 594.846 172.572C592.364 146.561 570.846 126.107 544.717 125.043C520.834 124.097 500.38 138.876 492.932 159.921C489.976 168.197 482.409 173.99 473.542 174.227C473.424 174.227 473.306 174.227 473.306 174.227C467.749 174.345 462.31 172.335 458.29 168.433C451.669 162.049 442.566 158.147 432.634 158.147C414.19 158.147 398.939 171.507 395.983 189.006C395.273 193.144 393.145 196.927 389.835 199.646C389.598 199.883 389.362 200.001 389.126 200.237C385.224 203.43 380.022 204.612 375.056 203.784C372.455 203.311 369.854 203.075 367.135 203.075C348.691 203.075 332.611 213.716 324.926 229.204C323.744 231.569 321.852 233.46 319.37 234.524C319.133 234.642 319.015 234.643 318.778 234.761C316.296 235.825 313.576 235.825 311.093 235.115C307.31 233.933 303.172 233.578 298.916 234.17C287.684 235.588 278.462 243.51 275.151 254.032H660.937V253.796Z" fill="white"/>
<path d="M1511.13 297.305C1506.28 295.058 1500.96 293.758 1495.29 293.758C1494.11 293.758 1492.81 293.403 1491.74 292.93C1485.24 289.501 1479.8 284.063 1476.25 277.56C1474.48 274.25 1473.89 270.584 1474.01 266.919C1474.01 266.446 1474.01 265.973 1474.01 265.382C1474.01 261.244 1473.3 257.224 1472.12 253.559C1467.15 238.426 1452.96 227.549 1436.17 227.549C1419.86 227.549 1405.91 237.953 1400.59 252.377C1399.4 255.687 1398.58 259.234 1398.34 262.899C1393.02 277.442 1379.19 287.728 1362.75 287.728C1354.36 287.728 1346.56 285.009 1340.29 280.279C1337.92 277.324 1335.21 274.723 1332.25 272.24C1322.32 264.082 1309.67 259.234 1295.83 259.234C1283.66 259.234 1272.31 263.018 1263.08 269.52C1263.2 268.102 1263.32 266.565 1263.32 265.146C1263.32 244.219 1246.41 227.312 1225.49 227.312C1207.52 227.312 1192.5 239.845 1188.6 256.633C1188.24 258.052 1188.01 259.353 1187.89 260.89C1184.23 276.851 1169.92 288.792 1152.78 288.792C1142.96 288.792 1133.98 284.89 1127.47 278.388C1127.36 278.269 1127.24 278.151 1127.12 278.033C1116.83 267.865 1102.76 261.599 1087.16 261.599C1073.68 261.599 1061.38 266.328 1051.69 274.013C1038.68 284.417 1030.41 300.379 1030.41 318.35H1530.52C1527.33 309.128 1520.12 301.443 1511.13 297.305Z" fill="white"/>
<path d="M112.466 811.725C108.683 809.597 108.328 804.277 111.757 801.675C118.733 796.473 123.225 788.079 123.225 778.739C123.225 770.108 119.324 762.305 113.294 756.984C108.801 753.083 108.328 746.462 111.994 741.851C115.422 737.595 117.314 732.274 117.077 726.363C116.486 714.54 106.91 704.963 95.0866 704.49C81.963 704.017 71.2041 714.421 71.2041 727.427C71.2041 732.984 73.214 738.068 76.5244 742.087C80.3078 746.58 79.7166 753.201 75.3421 757.103C69.3124 762.423 65.529 770.108 65.529 778.739C65.529 788.079 70.0217 796.473 76.9973 801.675C80.426 804.277 80.0713 809.597 76.2879 811.725C64.4649 818.228 56.5435 830.997 56.8982 845.539C57.3711 865.402 73.5687 881.599 93.5496 882.072C114.713 882.545 131.974 865.638 131.974 844.593C131.974 830.406 124.171 818.109 112.466 811.725Z" fill="#8BCCBF"/>
<path d="M1238.85 929.128C1244.29 920.379 1253.86 914.467 1264.98 914.467C1266.87 914.467 1268.76 914.704 1270.53 914.94C1274.2 896.496 1290.51 882.545 1310.14 882.545C1327.99 882.545 1343.25 894.132 1348.45 910.329C1357.55 912.694 1364.64 920.024 1366.77 929.128H1238.85Z" fill="#8BCCBF"/>
<path d="M1309.55 668.193H1119.55V931.729H1309.55V668.193Z" fill="#C2E2D6"/>
<path d="M1309.43 668.193H1119.55V648.449L1214.49 577.511L1309.43 648.449V668.193Z" fill="#8BCCBF"/>
<path d="M298.68 667.011H108.683V930.547H298.68V667.011Z" fill="#C2E2D6"/>
<path d="M298.679 667.011H108.683L132.329 576.328H298.679V667.011Z" fill="#8BCCBF"/>
<path d="M1157.86 434.688H932.986V929.483H1157.86V434.688Z" fill="#B2D8CA"/>
<path d="M1046.13 356.774L932.868 431.851H1158.57L1046.13 356.774ZM1044.12 415.417C1035.37 415.417 1028.4 409.269 1028.4 401.82C1028.4 394.372 1035.49 388.224 1044.12 388.224C1052.87 388.224 1059.85 394.372 1059.85 401.82C1059.85 409.269 1052.75 415.417 1044.12 415.417Z" fill="#B2D8CA"/>
<path d="M1072.73 806.759C1070.72 806.759 1069.19 808.178 1069.19 809.833V872.968C1069.19 874.624 1070.72 876.042 1072.73 876.042H1092.01V806.759H1072.73Z" fill="#8BCCBF"/>
<path d="M1116.01 876.042C1118.02 876.042 1119.55 874.624 1119.55 872.968V809.833C1119.55 808.178 1118.02 806.759 1116.01 806.759H1096.74V876.042H1116.01Z" fill="#8BCCBF"/>
<path d="M1072.73 650.104C1070.72 650.104 1069.19 651.523 1069.19 653.178V716.313C1069.19 717.968 1070.72 719.387 1072.73 719.387H1092.01V650.104H1072.73Z" fill="#8BCCBF"/>
<path d="M1116.01 719.387C1118.02 719.387 1119.55 717.968 1119.55 716.313V653.178C1119.55 651.523 1118.02 650.104 1116.01 650.104H1096.74V719.387H1116.01Z" fill="#8BCCBF"/>
<path d="M971.53 650.104C969.52 650.104 967.983 651.523 967.983 653.178V716.313C967.983 717.968 969.52 719.387 971.53 719.387H990.801V650.104H971.53Z" fill="#8BCCBF"/>
<path d="M1014.8 719.387C1016.81 719.387 1018.35 717.968 1018.35 716.313V653.178C1018.35 651.523 1016.81 650.104 1014.8 650.104H995.53V719.387H1014.8Z" fill="#8BCCBF"/>
<path d="M1072.73 492.266C1070.72 492.266 1069.19 493.685 1069.19 495.34V558.475C1069.19 560.131 1070.72 561.549 1072.73 561.549H1092.01V492.266H1072.73Z" fill="#8BCCBF"/>
<path d="M1116.01 561.549C1118.02 561.549 1119.55 560.131 1119.55 558.475V495.34C1119.55 493.685 1118.02 492.266 1116.01 492.266H1096.74V561.549H1116.01Z" fill="#8BCCBF"/>
<path d="M971.53 492.266C969.52 492.266 967.983 493.685 967.983 495.34V558.475C967.983 560.131 969.52 561.549 971.53 561.549H990.801V492.266H971.53Z" fill="#8BCCBF"/>
<path d="M1014.8 561.549C1016.81 561.549 1018.35 560.131 1018.35 558.475V495.34C1018.35 493.685 1016.81 492.266 1014.8 492.266H995.53V561.549H1014.8Z" fill="#8BCCBF"/>
<path d="M1018.35 806.759H958.997V929.128H1018.35V806.759Z" fill="#8BCCBF"/>
<path d="M508.183 481.508H243.111V929.01H508.183V481.508Z" fill="#B2D8CA"/>
<path d="M225.968 481.508H508.183V376.401L238.5 465.31C230.933 467.793 225.968 474.296 225.968 481.508Z" fill="#8BCCBF"/>
<path d="M459.946 570.299H481.818V526.199C481.818 522.888 479.099 520.169 475.788 520.169H465.975C462.665 520.169 459.946 522.888 459.946 526.199V570.299Z" fill="#8BCCBF"/>
<path d="M434.171 570.299H456.044V526.199C456.044 522.888 453.325 520.169 450.014 520.169H440.201C436.891 520.169 434.171 522.888 434.171 526.199V570.299Z" fill="#8BCCBF"/>
<path d="M377.894 570.299H399.766V526.199C399.766 522.888 397.047 520.169 393.736 520.169H383.923C380.613 520.169 377.894 522.888 377.894 526.199V570.299Z" fill="#8BCCBF"/>
<path d="M352.119 570.299H373.992V526.199C373.992 522.888 371.273 520.169 367.962 520.169H358.149C354.839 520.169 352.119 522.888 352.119 526.199V570.299Z" fill="#8BCCBF"/>
<path d="M295.842 570.299H317.714V526.199C317.714 522.888 314.995 520.169 311.685 520.169H301.872C298.561 520.169 295.842 522.888 295.842 526.199V570.299Z" fill="#8BCCBF"/>
<path d="M270.068 570.299H291.94V526.199C291.94 522.888 289.221 520.169 285.91 520.169H276.097C272.787 520.169 270.068 522.888 270.068 526.199V570.299Z" fill="#8BCCBF"/>
<path d="M459.946 667.957H481.818V623.857C481.818 620.546 479.099 617.827 475.788 617.827H465.975C462.665 617.827 459.946 620.546 459.946 623.857V667.957Z" fill="#8BCCBF"/>
<path d="M434.171 667.957H456.044V623.857C456.044 620.546 453.325 617.827 450.014 617.827H440.201C436.891 617.827 434.171 620.546 434.171 623.857V667.957Z" fill="#8BCCBF"/>
<path d="M377.894 667.957H399.766V623.857C399.766 620.546 397.047 617.827 393.736 617.827H383.923C380.613 617.827 377.894 620.546 377.894 623.857V667.957Z" fill="#8BCCBF"/>
<path d="M352.119 667.957H373.992V623.857C373.992 620.546 371.273 617.827 367.962 617.827H358.149C354.839 617.827 352.119 620.546 352.119 623.857V667.957Z" fill="#8BCCBF"/>
<path d="M295.842 667.957H317.714V623.857C317.714 620.546 314.995 617.827 311.685 617.827H301.872C298.561 617.827 295.842 620.546 295.842 623.857V667.957Z" fill="#8BCCBF"/>
<path d="M270.068 667.957H291.94V623.857C291.94 620.546 289.221 617.827 285.91 617.827H276.097C272.787 617.827 270.068 620.546 270.068 623.857V667.957Z" fill="#8BCCBF"/>
<path d="M459.946 765.733H481.818V721.634C481.818 718.323 479.099 715.604 475.788 715.604H465.975C462.665 715.604 459.946 718.323 459.946 721.634V765.733Z" fill="#8BCCBF"/>
<path d="M434.171 765.733H456.044V721.634C456.044 718.323 453.325 715.604 450.014 715.604H440.201C436.891 715.604 434.171 718.323 434.171 721.634V765.733Z" fill="#8BCCBF"/>
<path d="M377.894 765.733H399.766V721.634C399.766 718.323 397.047 715.604 393.736 715.604H383.923C380.613 715.604 377.894 718.323 377.894 721.634V765.733Z" fill="#8BCCBF"/>
<path d="M352.119 765.733H373.992V721.634C373.992 718.323 371.273 715.604 367.962 715.604H358.149C354.839 715.604 352.119 718.323 352.119 721.634V765.733Z" fill="#8BCCBF"/>
<path d="M295.842 765.733H317.714V721.634C317.714 718.323 314.995 715.604 311.685 715.604H301.872C298.561 715.604 295.842 718.323 295.842 721.634V765.733Z" fill="#8BCCBF"/>
<path d="M270.068 765.733H291.94V721.634C291.94 718.323 289.221 715.604 285.91 715.604H276.097C272.787 715.604 270.068 718.323 270.068 721.634V765.733Z" fill="#8BCCBF"/>
<path d="M459.946 863.392H481.818V819.292C481.818 815.981 479.099 813.262 475.788 813.262H465.975C462.665 813.262 459.946 815.981 459.946 819.292V863.392Z" fill="#8BCCBF"/>
<path d="M434.171 863.392H456.044V819.292C456.044 815.981 453.325 813.262 450.014 813.262H440.201C436.891 813.262 434.171 815.981 434.171 819.292V863.392Z" fill="#8BCCBF"/>
<path d="M377.894 863.392H399.766V819.292C399.766 815.981 397.047 813.262 393.736 813.262H383.923C380.613 813.262 377.894 815.981 377.894 819.292V863.392Z" fill="#8BCCBF"/>
<path d="M352.119 863.392H373.992V819.292C373.992 815.981 371.273 813.262 367.962 813.262H358.149C354.839 813.262 352.119 815.981 352.119 819.292V863.392Z" fill="#8BCCBF"/>
<path d="M295.842 863.392H317.714V819.292C317.714 815.981 314.995 813.262 311.685 813.262H301.872C298.561 813.262 295.842 815.981 295.842 819.292V863.392Z" fill="#8BCCBF"/>
<path d="M270.068 863.392H291.94V819.292C291.94 815.981 289.221 813.262 285.91 813.262H276.097C272.787 813.262 270.068 815.981 270.068 819.292V863.392Z" fill="#8BCCBF"/>
<path d="M952.302 456.27L495.697 457.329L496.795 930.842L953.401 929.783L952.302 456.27Z" fill="#FBC051"/>
<path d="M952.085 305.289L495.716 306.348L496.066 457.328L952.435 456.269L952.085 305.289Z" fill="#2F4D44"/>
<path opacity="0.5" d="M952.139 403.002L495.651 367.297L495.178 306.29L951.666 305.226L952.139 403.002Z" fill="#619B88"/>
<path d="M625.35 445.447L568.6 445.565L572.856 380.302L620.621 380.42L625.35 445.447Z" fill="white" stroke="#7D92A0" stroke-width="3.4459" stroke-miterlimit="10" stroke-linejoin="bevel"/>
<path d="M595.298 393.885L582.056 393.916L582.105 415.079L595.347 415.048L595.298 393.885Z" fill="#2F4D44"/>
<path d="M611.613 393.767L598.372 393.797L598.421 414.961L611.663 414.93L611.613 393.767Z" fill="#2F4D44"/>
<path d="M595.416 417.176L582.174 417.207L582.223 438.37L595.465 438.34L595.416 417.176Z" fill="#2F4D44"/>
<path d="M611.613 417.058L598.371 417.089L598.421 438.252L611.662 438.222L611.613 417.058Z" fill="#2F4D44"/>
<path d="M752.448 445.447L695.579 445.565L699.953 380.302L747.719 380.42L752.448 445.447Z" fill="white" stroke="#7D92A0" stroke-width="3.4459" stroke-miterlimit="10" stroke-linejoin="bevel"/>
<path d="M722.396 393.885L709.154 393.916L709.203 415.079L722.445 415.048L722.396 393.885Z" fill="#2F4D44"/>
<path d="M738.593 393.767L725.351 393.797L725.4 414.961L738.642 414.93L738.593 393.767Z" fill="#2F4D44"/>
<path d="M722.514 417.176L709.272 417.207L709.322 438.37L722.563 438.34L722.514 417.176Z" fill="#2F4D44"/>
<path d="M738.711 417.058L725.47 417.089L725.519 438.252L738.76 438.221L738.711 417.058Z" fill="#2F4D44"/>
<path d="M879.545 445.447L822.677 445.565L827.051 380.302L874.816 380.42L879.545 445.447Z" fill="white" stroke="#7D92A0" stroke-width="3.4459" stroke-miterlimit="10" stroke-linejoin="bevel"/>
<path d="M849.494 393.885L836.252 393.916L836.301 415.079L849.543 415.048L849.494 393.885Z" fill="#2F4D44"/>
<path d="M865.691 393.767L852.45 393.798L852.499 414.961L865.741 414.93L865.691 393.767Z" fill="#2F4D44"/>
<path d="M849.612 417.176L836.37 417.207L836.419 438.37L849.661 438.34L849.612 417.176Z" fill="#2F4D44"/>
<path d="M865.81 417.058L852.568 417.089L852.617 438.252L865.859 438.221L865.81 417.058Z" fill="#2F4D44"/>
<path d="M569.329 516.597L546.393 516.651L546.593 602.959L569.53 602.906L569.329 516.597Z" fill="#2F4D44"/>
<path d="M597.468 516.597L574.532 516.651L574.732 602.959L597.669 602.906L597.468 516.597Z" fill="#2F4D44"/>
<path d="M669.944 516.361L647.007 516.414L647.208 602.722L670.144 602.669L669.944 516.361Z" fill="#2F4D44"/>
<path d="M697.964 516.361L675.028 516.414L675.228 602.723L698.165 602.669L697.964 516.361Z" fill="#2F4D44"/>
<path d="M770.44 516.124L747.503 516.177L747.704 602.486L770.64 602.432L770.44 516.124Z" fill="#2F4D44"/>
<path d="M798.579 516.124L775.642 516.177L775.843 602.486L798.779 602.432L798.579 516.124Z" fill="#2F4D44"/>
<path d="M871.054 515.888L848.117 515.941L848.318 602.25L871.255 602.196L871.054 515.888Z" fill="#2F4D44"/>
<path d="M899.193 515.888L876.256 515.941L876.457 602.249L899.394 602.196L899.193 515.888Z" fill="#2F4D44"/>
<path d="M569.802 652.089L546.866 652.143L547.066 738.451L570.003 738.397L569.802 652.089Z" fill="#2F4D44"/>
<path d="M597.941 651.971L575.005 652.024L575.205 738.333L598.142 738.279L597.941 651.971Z" fill="#2F4D44"/>
<path d="M670.417 651.853L647.48 651.906L647.681 738.214L670.618 738.161L670.417 651.853Z" fill="#2F4D44"/>
<path d="M698.438 651.735L675.501 651.788L675.701 738.096L698.638 738.043L698.438 651.735Z" fill="#2F4D44"/>
<path d="M770.913 651.616L747.976 651.67L748.177 737.978L771.114 737.925L770.913 651.616Z" fill="#2F4D44"/>
<path d="M799.052 651.498L776.115 651.551L776.316 737.859L799.252 737.806L799.052 651.498Z" fill="#2F4D44"/>
<path d="M871.528 651.38L848.591 651.433L848.792 737.742L871.728 737.688L871.528 651.38Z" fill="#2F4D44"/>
<path d="M899.548 651.262L876.611 651.315L876.812 737.624L899.749 737.57L899.548 651.262Z" fill="#2F4D44"/>
<path d="M952.494 457.27H495.415V465.31H952.494V457.27Z" fill="#7D92A0"/>
<path d="M952.494 626.34H495.415V634.379H952.494V626.34Z" fill="#7D92A0"/>
<path d="M952.494 774.719H495.415V782.759H952.494V774.719Z" fill="#7D92A0"/>
<path d="M917.519 806.845L784.628 807.152L784.827 893.46L917.718 893.153L917.519 806.845Z" fill="#2F4D44"/>
<path d="M769.376 806.845L636.485 807.152L636.684 893.461L769.575 893.154L769.376 806.845Z" fill="#2F4D44"/>
<path d="M597.684 928.182L541.052 928.3L540.815 831.351C540.815 823.666 547.555 817.4 555.831 817.4L582.314 817.282C590.59 817.282 597.448 823.43 597.448 831.115L597.684 928.182Z" fill="#2F4D44"/>
<path d="M260.491 744.452C254.579 741.142 253.988 732.865 259.308 728.727C270.186 720.451 277.28 707.446 277.28 692.667C277.28 679.071 271.25 666.775 261.673 658.498C254.697 652.469 253.87 642.064 259.663 634.852C264.984 628.231 268.058 619.719 267.703 610.497C266.875 591.935 251.742 577.038 233.298 576.21C212.726 575.383 195.937 591.816 195.937 612.152C195.937 620.901 199.011 628.941 204.213 635.089C210.125 642.183 209.179 652.469 202.321 658.617C192.863 666.893 186.951 679.071 186.951 692.549C186.951 707.328 194.045 720.333 204.922 728.609C210.361 732.747 209.77 741.141 203.858 744.334C185.296 754.62 172.882 774.601 173.473 797.419C174.301 828.632 199.72 854.052 230.815 854.761C264.038 855.589 291.112 828.868 291.112 795.882C291.112 773.891 278.816 754.502 260.491 744.452Z" fill="#2F4D44"/>
<path d="M232.234 854.406V929.837" stroke="#2F4D44" stroke-width="3.4744" stroke-miterlimit="10"/>
<path d="M1168.62 896.733H1047.55V890.23C1047.55 883.018 1053.34 877.225 1060.44 877.225H1155.73C1162.83 877.225 1168.62 883.018 1168.62 890.23V896.733Z" fill="#2F4D44"/>
<path d="M1062.8 895.668H1055.83V930.428H1062.8V895.668Z" fill="#2F4D44"/>
<path d="M1159.4 895.668H1152.42V930.428H1159.4V895.668Z" fill="#2F4D44"/>
<path d="M1168.62 910.566H1047.55V915.65H1168.62V910.566Z" fill="#2F4D44"/>
<path d="M1168.62 899.925H1047.55V907.728H1168.62V899.925Z" fill="#2F4D44"/>
<path d="M-129.196 929.837H1578.05" stroke="#2F4D44" stroke-width="3" stroke-miterlimit="10"/>
</g>
<defs>
<linearGradient id="paint0_linear_304_2523" x1="720" y1="0" x2="720" y2="1000" gradientUnits="userSpaceOnUse">
<stop stop-color="#8BCCBF"/>
<stop offset="1" stop-color="white"/>
</linearGradient>
<clipPath id="clip0_304_2523">
<rect width="1440" height="1000" fill="white"/>
</clipPath>
</defs>
</svg>
