<svg width="1440" height="1000" viewBox="0 0 1440 1000" fill="none" xmlns="http://www.w3.org/2000/svg">
<g clip-path="url(#clip0_304_2933)">
<rect width="1440" height="1000" fill="white"/>
<rect width="1440" height="1000" fill="url(#paint0_linear_304_2933)" fill-opacity="0.2"/>
<path d="M1566.17 -32H-211.834V968H1566.17V-32Z" fill="url(#paint1_linear_304_2933)"/>
<g opacity="0.1">
<path d="M-430.559 358.926C-372.959 181.241 -139.134 106.056 49.2233 225.963C203.317 324.111 257.953 282.907 367.133 229.481C502.521 163.278 553.36 119.944 696.341 133.278C884.42 150.87 921.184 233.833 1087.59 328.185C1189.46 385.87 1329.11 269.944 1417.36 254.019C1601.64 220.778 1693.78 356.981 1703.04 489.019C1712.3 621.056 1583.49 755.593 1464.49 726.241C1314.29 689.204 1306.51 657.815 1217.52 695.963C1116.86 739.111 1113.62 862.074 791.816 839.481C540.581 821.796 537.525 643.185 443.161 645.593C348.798 647.907 374.727 726.796 295.55 725.407C216.374 724.019 210.54 673.185 125.437 684.481C12.089 699.481 -22.3597 819.852 -213.68 768.648C-405 717.537 -489.362 540.5 -430.559 358.926Z" fill="url(#paint2_radial_304_2933)"/>
</g>
<path d="M1081.47 716.889C1076 713.833 1075.35 706.148 1080.35 702.352C1090.45 694.667 1097.02 682.537 1097.02 668.926C1097.02 656.241 1091.47 644.944 1082.58 637.259C1076.09 631.611 1075.35 621.981 1080.72 615.315C1085.73 609.204 1088.6 601.333 1088.13 592.722C1087.39 575.5 1073.32 561.611 1056.18 560.963C1037.11 560.222 1021.46 575.407 1021.46 594.296C1021.46 602.444 1024.33 609.852 1029.14 615.593C1034.61 622.167 1033.77 631.796 1027.38 637.444C1018.59 645.13 1013.03 656.426 1013.03 669.019C1013.03 682.722 1019.61 694.852 1029.7 702.444C1034.7 706.241 1034.24 714.019 1028.68 717.074C1011.46 726.611 999.882 745.13 1000.44 766.333C1001.18 795.315 1024.79 818.926 1053.78 819.574C1084.61 820.315 1109.8 795.593 1109.8 764.944C1109.9 744.204 1098.41 726.148 1081.47 716.889Z" fill="#2F4D44"/>
<path d="M1055.17 818.926V889.019" stroke="#2F4D44" stroke-width="4.1196" stroke-miterlimit="10"/>
<path d="M164.602 743.833C159.972 741.241 159.509 734.759 163.676 731.519C172.195 725.037 177.752 714.852 177.752 703.278C177.752 692.63 173.029 683 165.528 676.519C160.064 671.796 159.416 663.648 163.954 658C168.121 652.815 170.529 646.148 170.251 638.926C169.602 624.389 157.749 612.722 143.303 612.074C127.19 611.426 114.04 624.296 114.04 640.222C114.04 647.074 116.448 653.37 120.522 658.185C125.152 663.741 124.412 671.796 119.041 676.611C111.632 683.093 107.002 692.63 107.002 703.185C107.002 714.759 112.558 724.945 121.078 731.426C125.338 734.667 124.875 741.241 120.244 743.741C105.706 751.796 95.9821 767.445 96.4452 785.315C97.0934 809.759 117.003 829.667 141.358 830.222C167.38 830.87 188.586 809.945 188.586 784.111C188.586 766.889 178.863 751.704 164.602 743.833Z" fill="#2F4D44"/>
<path d="M142.469 829.945V889.019" stroke="#2F4D44" stroke-width="3.4744" stroke-miterlimit="10"/>
<path d="M956.172 743.833C951.542 741.241 951.079 734.759 955.246 731.518C963.766 725.037 969.322 714.852 969.322 703.278C969.322 692.63 964.599 683 957.099 676.518C951.635 671.796 950.987 663.648 955.524 658C959.691 652.815 962.099 646.148 961.821 638.926C961.173 624.389 949.32 612.722 934.874 612.074C918.76 611.426 905.611 624.296 905.611 640.222C905.611 647.074 908.018 653.37 912.093 658.185C916.723 663.741 915.982 671.796 910.611 676.611C903.203 683.093 898.573 692.63 898.573 703.185C898.573 714.759 904.129 724.944 912.649 731.426C916.908 734.667 916.445 741.241 911.815 743.741C897.276 751.796 887.553 767.444 888.016 785.315C888.664 809.759 908.574 829.667 932.929 830.222C958.951 830.87 980.157 809.944 980.157 784.111C980.064 766.889 970.434 751.704 956.172 743.833Z" fill="#2F4D44"/>
<path d="M933.947 829.944V889.018" stroke="#2F4D44" stroke-width="3.4744" stroke-miterlimit="10"/>
<path d="M500.107 860.963C497.236 845.5 483.716 833.833 467.418 833.833C451.397 833.833 438.062 845.13 434.821 860.222C428.153 861.056 422.134 863.556 416.948 867.352C411.67 863.093 404.91 860.5 397.501 860.5C394.816 860.5 392.223 860.87 389.723 861.519C389.723 860.963 389.723 860.5 389.723 859.944C389.723 832.722 367.59 810.593 340.365 810.593C316.102 810.593 295.915 828.093 291.84 851.241C289.988 850.778 288.043 850.5 286.099 850.5C275.727 850.5 266.837 856.889 263.04 865.87C258.595 862.167 252.946 859.944 246.742 859.944C232.666 859.944 221.276 871.333 221.276 885.407C221.276 886.333 221.368 887.259 221.461 888.185H528.722C525.758 874.111 514.46 863.185 500.107 860.963Z" fill="#2F4D44"/>
<path d="M2.08154 889.019H1339.29" stroke="#2F4D44" stroke-width="3" stroke-miterlimit="10"/>
<path d="M217.546 487.259C248.079 487.259 272.831 462.511 272.831 431.982C272.831 401.452 248.079 376.704 217.546 376.704C187.013 376.704 162.262 401.452 162.262 431.982C162.262 462.511 187.013 487.259 217.546 487.259Z" fill="#F29159"/>
<path d="M445.167 510.778C445.538 508.463 445.723 506.148 445.538 503.741C444.612 489.482 433.129 477.815 418.775 476.611C416.275 476.426 413.867 476.519 411.552 476.889C406.274 477.722 400.995 476.148 397.384 472.167C397.198 471.982 397.013 471.704 396.735 471.519C393.494 467.907 392.105 463 392.939 458.278C393.587 454.667 393.772 450.963 393.402 447.167C391.457 426.796 374.603 410.778 354.138 409.945C335.431 409.204 319.411 420.778 313.577 437.259C311.262 443.741 305.335 448.278 298.39 448.463C298.297 448.463 298.205 448.463 298.205 448.463C293.852 448.556 289.592 446.982 286.444 443.926C281.258 438.926 274.128 435.87 266.349 435.87C251.903 435.87 239.957 446.333 237.641 460.037C237.086 463.278 235.419 466.241 232.826 468.37C232.641 468.556 232.456 468.648 232.27 468.833C229.215 471.333 225.14 472.259 221.251 471.611C219.213 471.241 217.176 471.056 215.046 471.056C200.6 471.056 188.006 479.389 181.986 491.519C181.06 493.37 179.579 494.852 177.634 495.685C177.449 495.778 177.356 495.778 177.171 495.87C175.226 496.704 173.096 496.704 171.152 496.148C168.188 495.222 164.947 494.945 161.613 495.407C152.816 496.519 145.593 502.722 143 510.963H445.167V510.778Z" fill="white"/>
<path d="M1344.53 443.815C1340.73 442.056 1336.56 441.037 1332.12 441.037C1331.19 441.037 1330.17 440.759 1329.34 440.389C1324.25 437.704 1319.99 433.444 1317.21 428.352C1315.82 425.759 1315.36 422.889 1315.45 420.019C1315.45 419.648 1315.45 419.278 1315.45 418.815C1315.45 415.574 1314.9 412.426 1313.97 409.556C1310.08 397.704 1298.97 389.185 1285.82 389.185C1273.04 389.185 1262.11 397.333 1257.94 408.63C1257.02 411.222 1256.37 414 1256.18 416.87C1252.02 428.259 1241.18 436.315 1228.31 436.315C1221.74 436.315 1215.62 434.185 1210.72 430.481C1208.86 428.167 1206.73 426.13 1204.42 424.185C1196.64 417.796 1186.73 414 1175.9 414C1166.36 414 1157.47 416.963 1150.25 422.056C1150.34 420.944 1150.43 419.741 1150.43 418.63C1150.43 402.241 1137.19 389 1120.8 389C1106.72 389 1094.96 398.815 1091.9 411.963C1091.63 413.074 1091.44 414.093 1091.35 415.296C1088.48 427.796 1077.27 437.148 1063.85 437.148C1056.16 437.148 1049.12 434.093 1044.03 429C1043.94 428.907 1043.84 428.815 1043.75 428.722C1035.69 420.759 1024.67 415.852 1012.45 415.852C1001.89 415.852 992.262 419.556 984.669 425.574C974.482 433.722 968 446.222 968 460.296H1359.72C1357.12 453.074 1351.57 447.056 1344.53 443.815Z" fill="white"/>
<path d="M1467.15 888.278L1257.67 889.667L1256.38 686.982L1360.19 535.037L1465.85 685.593L1467.15 888.278Z" fill="#44655E"/>
<path d="M1257.67 889.667L1048.2 890.963L1047 688.278L1151.64 687.63L1256.38 686.981L1257.67 889.667Z" fill="#FBBE51"/>
<path d="M1256.38 686.981L1047 688.278L1150.72 536.333L1360.19 535.037L1256.38 686.981Z" fill="#F2935A"/>
<path d="M1222.85 590.166L1113.12 590.859L1113.52 655.026L1223.26 654.333L1222.85 590.166Z" fill="#FBBE51"/>
<path d="M1223.23 654.389L1222.86 590.222L1267.03 589.944L1223.23 654.389Z" fill="#784C36"/>
<path d="M1446.94 760.205L1289.33 761.2L1290.14 889.441L1447.75 888.446L1446.94 760.205Z" fill="#FBBE51"/>
<path d="M1423.92 799.889L1312.88 800.59L1313.44 889.294L1424.48 888.593L1423.92 799.889Z" fill="#44655E"/>
<path d="M1423.99 804.444L1318.79 805.108L1318.83 811.774L1424.03 811.11L1423.99 804.444Z" fill="#F2935A"/>
<path d="M1423.99 813.426L1318.79 814.09L1318.83 820.756L1424.03 820.092L1423.99 813.426Z" fill="#F2935A"/>
<path d="M1424.08 822.407L1318.88 823.071L1318.93 829.738L1424.12 829.074L1424.08 822.407Z" fill="#F2935A"/>
<path d="M1424.08 831.482L1318.88 832.146L1318.93 838.812L1424.13 838.148L1424.08 831.482Z" fill="#F2935A"/>
<path d="M1424.18 840.463L1318.98 841.127L1319.02 847.794L1424.22 847.13L1424.18 840.463Z" fill="#F2935A"/>
<path d="M1424.27 849.445L1319.07 850.109L1319.11 856.775L1424.31 856.111L1424.27 849.445Z" fill="#F2935A"/>
<path d="M1126.64 729.638L1083.4 729.911L1083.6 762.874L1126.85 762.601L1126.64 729.638Z" fill="#8BCCBF"/>
<path d="M1126.87 772.695L1083.62 772.968L1084.31 881.487L1127.55 881.214L1126.87 772.695Z" fill="#8BCCBF"/>
<path d="M1208.14 729.175L1164.89 729.448L1165.1 762.411L1208.34 762.138L1208.14 729.175Z" fill="#8BCCBF"/>
<path d="M1208.36 772.14L1165.11 772.413L1165.8 880.931L1209.05 880.658L1208.36 772.14Z" fill="#8BCCBF"/>
<path d="M1126.67 737.812L1091.48 738.034L1091.64 762.849L1126.83 762.626L1126.67 737.812Z" fill="#C2E4EA"/>
<path d="M1126.89 779.758L1091.7 779.98L1092.34 881.369L1127.53 881.147L1126.89 779.758Z" fill="#C2E4EA"/>
<path d="M1208.16 737.35L1173.25 737.57L1173.41 762.385L1208.32 762.164L1208.16 737.35Z" fill="#C2E4EA"/>
<path d="M1208.38 779.296L1173.47 779.516L1174.11 880.905L1209.02 880.685L1208.38 779.296Z" fill="#C2E4EA"/>
<path d="M1209.69 603.025L1125.42 603.557L1125.67 643.186L1209.94 642.654L1209.69 603.025Z" fill="#8BCCBF"/>
<path d="M1361.92 686.3L1317.19 686.582L1317.66 761.026L1362.39 760.744L1361.92 686.3Z" fill="#619B88"/>
<path d="M1416.92 685.93L1372.2 686.212L1372.67 760.656L1417.39 760.374L1416.92 685.93Z" fill="#619B88"/>
<path d="M1361.96 700.334L1333.99 700.511L1334.38 760.881L1362.34 760.705L1361.96 700.334Z" fill="#8BCCBF"/>
<path d="M1416.97 700.057L1389 700.233L1389.38 760.604L1417.35 760.427L1416.97 700.057Z" fill="#8BCCBF"/>
<path d="M1209.72 611.674L1137.3 612.131L1137.5 643.149L1209.91 642.692L1209.72 611.674Z" fill="#C2E4EA"/>
<path d="M802.628 886.611C796.794 877.074 786.33 870.685 774.292 870.685C772.254 870.685 770.217 870.87 768.272 871.241C764.29 851.241 746.603 836.148 725.396 836.148C706.042 836.148 689.559 848.741 683.817 866.241C674.001 868.833 666.315 876.704 664 886.611H802.628Z" fill="#2F4D44"/>
</g>
<defs>
<linearGradient id="paint0_linear_304_2933" x1="720" y1="0" x2="720" y2="1000" gradientUnits="userSpaceOnUse">
<stop stop-color="#8BCCBF"/>
<stop offset="1" stop-color="white"/>
</linearGradient>
<linearGradient id="paint1_linear_304_2933" x1="672.932" y1="-21.4267" x2="681.488" y2="967.788" gradientUnits="userSpaceOnUse">
<stop offset="0.2951" stop-color="white"/>
<stop offset="0.4533" stop-color="#F5FAF9"/>
<stop offset="0.7246" stop-color="#D9EEEA"/>
<stop offset="1" stop-color="#B7DED7"/>
</linearGradient>
<radialGradient id="paint2_radial_304_2933" cx="0" cy="0" r="1" gradientUnits="userSpaceOnUse" gradientTransform="translate(652.075 672.393) rotate(4.58679) scale(800.726 497.581)">
<stop offset="0.4199" stop-color="#2F4D44"/>
<stop offset="0.9596" stop-color="white"/>
</radialGradient>
<clipPath id="clip0_304_2933">
<rect width="1440" height="1000" fill="white"/>
</clipPath>
</defs>
</svg>
