<svg width="1440" height="1000" viewBox="0 0 1440 1000" fill="none" xmlns="http://www.w3.org/2000/svg">
<g clip-path="url(#clip0_304_2111)">
<rect width="1440" height="1000" fill="white"/>
<rect width="1440" height="1000" fill="url(#paint0_linear_304_2111)" fill-opacity="0.2"/>
<path opacity="0.3" d="M-284.607 904.004C-304.148 962.206 -310.361 1019.79 -310.148 1070.06C-310.129 1074.25 -310.077 1078.39 -309.968 1082.49C-309.954 1083.14 -309.932 1083.8 -309.914 1084.45C-308.886 1119.73 -304.073 1150.73 -300.56 1175.34C-298.514 1189.61 -284.214 1223.72 -246.538 1274.28C-242.679 1279.47 -238.562 1284.83 -234.192 1290.37C-155.675 1389.76 6.1337 1543.97 320.806 1731.96C574.56 1883.57 1076.38 2109.28 1370.05 2143.04C1450.73 2152.31 1578.36 2086.32 1578.36 2086.32C1590.99 2076.61 1602.92 2066.97 1614.13 2057.42C1615.15 2056.57 1616.15 2055.72 1617.13 2054.87C1622.79 2050.01 1628.26 2045.18 1633.56 2040.38C1633.65 2040.28 1633.75 2040.19 1633.83 2040.09C1638.1 2035.57 1642.11 2031.08 1645.89 2026.62C1648.22 2023.86 1650.45 2021.11 1652.6 2018.38C1663.32 2004.76 1671.84 1991.35 1678.56 1978.11C1679.72 1975.85 1680.81 1973.59 1681.87 1971.35C1685.26 1964.05 1688.11 1956.8 1690.49 1949.6C1692.15 1944.58 1693.59 1939.59 1694.81 1934.61C1694.95 1934.06 1695.09 1933.49 1695.22 1932.94C1696.43 1927.87 1697.43 1922.8 1698.23 1917.75C1698.48 1916.28 1698.7 1914.81 1698.91 1913.34C1699.57 1908.6 1700.08 1903.87 1700.43 1899.15C1700.46 1898.99 1700.46 1898.81 1700.48 1898.65C1701.14 1889.82 1701.31 1881 1701.12 1872.19C1700.86 1859.18 1699.79 1846.19 1698.35 1833.12C1696.29 1814.47 1693.46 1795.67 1691.03 1776.57C1682.82 1711.94 1679.29 1643.67 1726.21 1564.38C1735.31 1548.98 1746.31 1533.19 1759.55 1516.91C1774.03 1499.12 1787.05 1481.21 1798.72 1463.24C1848.37 1386.72 1873.11 1308.98 1878.12 1233.47C1879.19 1217.22 1879.34 1201.06 1878.65 1185.06C1876.08 1126.63 1862.02 1070.02 1838.95 1016.9C1819.07 971.09 1792.48 927.877 1760.82 888.334C1745.94 869.728 1729.93 851.938 1712.96 835.07C1690.21 812.465 1665.76 791.513 1639.99 772.479C1474.75 650.47 1255.32 607.284 1087.3 713.079C865.756 852.574 653.687 792.149 578.897 727.79C563.225 714.299 547.21 701.078 530.785 688.337C430.579 610.698 314.834 551.698 166.804 569.03C166.754 569.035 166.688 569.033 166.635 569.047C166.604 569.052 166.585 569.052 166.546 569.054C153.827 570.557 140.867 572.607 127.661 575.277C122.89 576.23 118.084 577.28 113.246 578.402C104.033 580.524 94.6913 582.95 85.2279 585.681C54.0756 594.664 21.5877 606.929 -12.3691 622.892C-17.0901 625.105 -21.8277 627.397 -26.598 629.759C-26.598 629.759 -26.6016 629.767 -26.6052 629.775C-28.9145 630.905 -31.2233 632.055 -33.5307 633.243C-40.554 636.799 -47.6337 640.52 -54.782 644.391C-60.8531 647.699 -66.964 651.093 -73.1435 654.637C-93.5451 666.299 -112.262 678.649 -129.42 691.543C-146.193 704.138 -161.5 717.272 -175.434 730.799C-176.53 731.858 -177.61 732.924 -178.69 733.99C-179.312 734.6 -179.919 735.216 -180.523 735.825C-188.338 743.637 -195.703 751.589 -202.643 759.651C-205.969 763.514 -209.194 767.386 -212.317 771.305C-218.383 778.853 -224.089 786.491 -229.48 794.187C-254.411 829.923 -272.2 867.109 -284.594 904.039L-284.607 904.004Z" fill="#8BCCBF"/>
<path d="M221.894 283.12C222.346 280.292 222.573 277.464 222.346 274.523C221.215 257.103 207.189 242.85 189.656 241.38C186.602 241.154 183.661 241.267 180.833 241.719C174.385 242.737 167.937 240.814 163.526 235.95C163.3 235.724 163.073 235.385 162.734 235.158C158.775 230.747 157.078 224.752 158.096 218.983C158.888 214.571 159.114 210.047 158.662 205.409C156.286 180.523 135.699 160.954 110.7 159.936C87.851 159.031 68.2818 173.171 61.1555 193.305C58.3276 201.224 51.0881 206.766 42.6044 206.992C42.4913 206.992 42.3782 206.992 42.3782 206.992C37.0617 207.106 31.8584 205.183 28.0124 201.45C21.6779 195.342 12.9679 191.609 3.46617 191.609C-14.18 191.609 -28.772 204.391 -31.5999 221.132C-32.2786 225.091 -34.3147 228.711 -37.482 231.313C-37.7082 231.539 -37.9344 231.652 -38.1606 231.878C-41.8935 234.932 -46.8706 236.063 -51.6215 235.272C-54.1101 234.819 -56.5986 234.593 -59.2003 234.593C-76.8465 234.593 -92.2303 244.773 -99.5829 259.592C-100.714 261.854 -102.524 263.664 -104.899 264.682C-105.126 264.795 -105.239 264.795 -105.465 264.908C-107.84 265.926 -110.442 265.926 -112.817 265.247C-116.437 264.116 -120.396 263.777 -124.468 264.342C-135.215 265.7 -144.038 273.279 -147.205 283.346H221.894V283.12Z" fill="white"/>
<path d="M1421.45 470.83C1416.81 468.681 1411.72 467.436 1406.29 467.436C1405.16 467.436 1403.92 467.097 1402.9 466.645C1396.68 463.364 1391.47 458.161 1388.08 451.939C1386.38 448.772 1385.82 445.266 1385.93 441.759C1385.93 441.307 1385.93 440.854 1385.93 440.288C1385.93 436.329 1385.25 432.483 1384.12 428.977C1379.37 414.498 1365.8 404.091 1349.73 404.091C1334.12 404.091 1320.78 414.045 1315.69 427.846C1314.55 431.013 1313.76 434.406 1313.54 437.913C1308.45 451.826 1295.21 461.667 1279.49 461.667C1271.46 461.667 1263.99 459.066 1258 454.541C1255.73 451.713 1253.13 449.225 1250.3 446.849C1240.8 439.044 1228.7 434.406 1215.46 434.406C1203.81 434.406 1192.95 438.026 1184.13 444.248C1184.24 442.89 1184.36 441.42 1184.36 440.062C1184.36 420.041 1168.18 403.865 1148.16 403.865C1130.97 403.865 1116.6 415.855 1112.87 431.918C1112.53 433.275 1112.3 434.52 1112.19 435.99C1108.68 451.261 1095 462.685 1078.59 462.685C1069.2 462.685 1060.61 458.953 1054.39 452.731C1054.27 452.618 1054.16 452.505 1054.05 452.392C1044.21 442.664 1030.75 436.669 1015.81 436.669C1002.92 436.669 991.155 441.193 981.879 448.546C969.436 458.5 961.518 473.771 961.518 490.965H1440C1436.95 482.142 1430.05 474.789 1421.45 470.83Z" fill="white"/>
<path d="M774.807 929.24C780.01 920.87 789.173 915.214 799.806 915.214C801.615 915.214 803.425 915.44 805.122 915.667C808.629 898.02 824.239 884.673 843.016 884.673C860.097 884.673 874.689 895.758 879.666 911.255C888.376 913.517 895.163 920.531 897.199 929.24H774.807Z" fill="#8BCCBF"/>
<path d="M842.451 679.593H660.673V931.729H842.451V679.593Z" fill="#C2E2D6"/>
<path d="M842.337 679.593H660.672V660.702L751.505 592.832L842.337 660.702V679.593Z" fill="#8BCCBF"/>
<path d="M697.323 456.188H482.175V929.58H697.323V456.188Z" fill="#B2D8CA"/>
<path d="M590.427 381.644L482.062 453.473H698.001L590.427 381.644ZM588.504 437.75C580.134 437.75 573.46 431.868 573.46 424.741C573.46 417.615 580.247 411.733 588.504 411.733C596.875 411.733 603.549 417.615 603.549 424.741C603.549 431.868 596.762 437.75 588.504 437.75Z" fill="#B2D8CA"/>
<path d="M615.879 812.165C613.956 812.165 612.485 813.522 612.485 815.106V875.51C612.485 877.094 613.956 878.451 615.879 878.451H634.317V812.165H615.879Z" fill="#8BCCBF"/>
<path d="M657.28 878.451C659.203 878.451 660.673 877.094 660.673 875.51V815.106C660.673 813.522 659.203 812.165 657.28 812.165H638.842V878.451H657.28Z" fill="#8BCCBF"/>
<path d="M615.879 662.286C613.956 662.286 612.485 663.643 612.485 665.227V725.631C612.485 727.214 613.956 728.572 615.879 728.572H634.317V662.286H615.879Z" fill="#8BCCBF"/>
<path d="M657.28 728.572C659.203 728.572 660.673 727.214 660.673 725.631V665.227C660.673 663.643 659.203 662.286 657.28 662.286H638.842V728.572H657.28Z" fill="#8BCCBF"/>
<path d="M519.052 662.286C517.129 662.286 515.658 663.643 515.658 665.227V725.631C515.658 727.214 517.129 728.572 519.052 728.572H537.49V662.286H519.052Z" fill="#8BCCBF"/>
<path d="M560.453 728.572C562.376 728.572 563.846 727.214 563.846 725.631V665.227C563.846 663.643 562.376 662.286 560.453 662.286H542.015V728.572H560.453Z" fill="#8BCCBF"/>
<path d="M615.879 511.275C613.956 511.275 612.485 512.633 612.485 514.216V574.621C612.485 576.204 613.956 577.562 615.879 577.562H634.317V511.275H615.879Z" fill="#8BCCBF"/>
<path d="M657.28 577.562C659.203 577.562 660.673 576.204 660.673 574.621V514.216C660.673 512.633 659.203 511.275 657.28 511.275H638.842V577.562H657.28Z" fill="#8BCCBF"/>
<path d="M519.052 511.275C517.129 511.275 515.658 512.633 515.658 514.216V574.621C515.658 576.204 517.129 577.562 519.052 577.562H537.49V511.275H519.052Z" fill="#8BCCBF"/>
<path d="M560.453 577.562C562.376 577.562 563.846 576.204 563.846 574.621V514.216C563.846 512.633 562.376 511.275 560.453 511.275H542.015V577.562H560.453Z" fill="#8BCCBF"/>
<path d="M563.846 812.165H507.061V929.24H563.846V812.165Z" fill="#8BCCBF"/>
<path d="M75.7477 500.982H-177.859V929.127H75.7477V500.982Z" fill="#B2D8CA"/>
<path d="M-194.261 500.982H75.7474V400.421L-182.271 485.485C-189.51 487.86 -194.261 494.082 -194.261 500.982Z" fill="#8BCCBF"/>
<path d="M29.5966 585.932H50.5231V543.74C50.5231 540.572 47.9214 537.971 44.7542 537.971H35.3655C32.1983 537.971 29.5966 540.572 29.5966 543.74V585.932Z" fill="#8BCCBF"/>
<path d="M4.93689 585.932H25.8634V543.74C25.8634 540.572 23.2618 537.971 20.0945 537.971H10.7058C7.53854 537.971 4.93689 540.572 4.93689 543.74V585.932Z" fill="#8BCCBF"/>
<path d="M29.5966 679.367H50.5231V637.174C50.5231 634.007 47.9214 631.405 44.7542 631.405H35.3655C32.1983 631.405 29.5966 634.007 29.5966 637.174V679.367Z" fill="#8BCCBF"/>
<path d="M4.93689 679.366H25.8634V637.174C25.8634 634.007 23.2618 631.405 20.0945 631.405H10.7058C7.53854 631.405 4.93689 634.007 4.93689 637.174V679.366Z" fill="#8BCCBF"/>
<path d="M29.5966 772.914H50.5231V730.721C50.5231 727.554 47.9214 724.952 44.7542 724.952H35.3655C32.1983 724.952 29.5966 727.554 29.5966 730.721V772.914Z" fill="#8BCCBF"/>
<path d="M4.93689 772.914H25.8634V730.721C25.8634 727.554 23.2618 724.952 20.0945 724.952H10.7058C7.53854 724.952 4.93689 727.554 4.93689 730.721V772.914Z" fill="#8BCCBF"/>
<path d="M29.5966 866.348H50.5231V824.155C50.5231 820.988 47.9214 818.386 44.7542 818.386H35.3655C32.1983 818.386 29.5966 820.988 29.5966 824.155V866.348Z" fill="#8BCCBF"/>
<path d="M4.93689 866.348H25.8634V824.155C25.8634 820.988 23.2618 818.386 20.0945 818.386H10.7058C7.53854 818.386 4.93689 820.988 4.93689 824.155V866.348Z" fill="#8BCCBF"/>
<path d="M500.656 476.836L63.8007 477.849L64.8515 930.88L501.707 929.867L500.656 476.836Z" fill="#FBC051"/>
<path d="M500.448 332.386L63.8191 333.398L64.1541 477.848L500.783 476.835L500.448 332.386Z" fill="#2F4D44"/>
<path opacity="0.5" d="M500.5 425.873L63.7575 391.711L63.3051 333.343L500.047 332.325L500.5 425.873Z" fill="#619B88"/>
<path d="M187.846 466.481L133.55 466.594L137.622 404.154L183.321 404.267L187.846 466.481Z" fill="white" stroke="#7D92A0" stroke-width="3.4459" stroke-miterlimit="10" stroke-linejoin="bevel"/>
<path d="M159.094 417.149L146.425 417.179L146.472 437.427L159.141 437.397L159.094 417.149Z" fill="#2F4D44"/>
<path d="M174.704 417.036L162.035 417.065L162.082 437.313L174.751 437.284L174.704 417.036Z" fill="#2F4D44"/>
<path d="M159.207 439.433L146.538 439.462L146.585 459.71L159.254 459.681L159.207 439.433Z" fill="#2F4D44"/>
<path d="M174.703 439.32L162.034 439.349L162.081 459.597L174.75 459.568L174.703 439.32Z" fill="#2F4D44"/>
<path d="M309.446 466.481L255.037 466.594L259.222 404.154L304.921 404.267L309.446 466.481Z" fill="white" stroke="#7D92A0" stroke-width="3.4459" stroke-miterlimit="10" stroke-linejoin="bevel"/>
<path d="M280.694 417.149L268.025 417.179L268.072 437.426L280.741 437.397L280.694 417.149Z" fill="#2F4D44"/>
<path d="M296.191 417.036L283.522 417.065L283.569 437.313L296.238 437.284L296.191 417.036Z" fill="#2F4D44"/>
<path d="M280.808 439.433L268.139 439.462L268.186 459.71L280.855 459.681L280.808 439.433Z" fill="#2F4D44"/>
<path d="M296.304 439.32L283.635 439.349L283.682 459.597L296.351 459.568L296.304 439.32Z" fill="#2F4D44"/>
<path d="M431.046 466.481L376.637 466.594L380.823 404.154L426.521 404.267L431.046 466.481Z" fill="white" stroke="#7D92A0" stroke-width="3.4459" stroke-miterlimit="10" stroke-linejoin="bevel"/>
<path d="M402.295 417.149L389.625 417.179L389.672 437.427L402.342 437.397L402.295 417.149Z" fill="#2F4D44"/>
<path d="M417.792 417.036L405.123 417.066L405.17 437.313L417.839 437.284L417.792 417.036Z" fill="#2F4D44"/>
<path d="M402.408 439.433L389.739 439.463L389.786 459.71L402.455 459.681L402.408 439.433Z" fill="#2F4D44"/>
<path d="M417.905 439.32L405.236 439.349L405.283 459.597L417.952 459.568L417.905 439.32Z" fill="#2F4D44"/>
<path d="M134.249 534.554L112.304 534.605L112.496 617.18L134.441 617.129L134.249 534.554Z" fill="#2F4D44"/>
<path d="M161.171 534.554L139.226 534.605L139.418 617.18L161.363 617.129L161.171 534.554Z" fill="#2F4D44"/>
<path d="M230.511 534.327L208.566 534.378L208.758 616.953L230.702 616.902L230.511 534.327Z" fill="#2F4D44"/>
<path d="M257.32 534.328L235.375 534.379L235.567 616.954L257.512 616.903L257.32 534.328Z" fill="#2F4D44"/>
<path d="M326.66 534.101L304.715 534.152L304.907 616.727L326.851 616.676L326.66 534.101Z" fill="#2F4D44"/>
<path d="M353.582 534.101L331.637 534.152L331.829 616.727L353.774 616.676L353.582 534.101Z" fill="#2F4D44"/>
<path d="M422.922 533.875L400.977 533.926L401.169 616.501L423.114 616.45L422.922 533.875Z" fill="#2F4D44"/>
<path d="M449.844 533.875L427.899 533.926L428.091 616.501L450.036 616.45L449.844 533.875Z" fill="#2F4D44"/>
<path d="M134.701 664.185L112.756 664.236L112.948 746.811L134.893 746.76L134.701 664.185Z" fill="#2F4D44"/>
<path d="M161.623 664.072L139.678 664.123L139.87 746.698L161.815 746.647L161.623 664.072Z" fill="#2F4D44"/>
<path d="M230.964 663.959L209.019 664.01L209.211 746.585L231.155 746.534L230.964 663.959Z" fill="#2F4D44"/>
<path d="M257.772 663.846L235.827 663.897L236.019 746.472L257.964 746.421L257.772 663.846Z" fill="#2F4D44"/>
<path d="M327.113 663.733L305.168 663.784L305.36 746.359L327.305 746.308L327.113 663.733Z" fill="#2F4D44"/>
<path d="M354.034 663.62L332.09 663.671L332.282 746.245L354.226 746.194L354.034 663.62Z" fill="#2F4D44"/>
<path d="M423.375 663.506L401.431 663.557L401.622 746.132L423.567 746.081L423.375 663.506Z" fill="#2F4D44"/>
<path d="M450.183 663.393L428.239 663.444L428.431 746.019L450.375 745.968L450.183 663.393Z" fill="#2F4D44"/>
<path d="M500.839 477.793H63.5311V485.485H500.839V477.793Z" fill="#7D92A0"/>
<path d="M500.839 639.549H63.5311V647.241H500.839V639.549Z" fill="#7D92A0"/>
<path d="M500.839 781.511H63.5311V789.203H500.839V781.511Z" fill="#7D92A0"/>
<path d="M467.377 812.247L340.234 812.541L340.425 895.116L467.568 894.822L467.377 812.247Z" fill="#2F4D44"/>
<path d="M325.642 812.247L198.499 812.541L198.69 895.116L325.833 894.822L325.642 812.247Z" fill="#2F4D44"/>
<path d="M161.377 928.336L107.194 928.449L106.968 835.693C106.968 828.341 113.416 822.346 121.334 822.346L146.672 822.232C154.59 822.232 161.151 828.114 161.151 835.467L161.377 928.336Z" fill="#2F4D44"/>
<path d="M707.616 898.247H591.785V892.025C591.785 885.125 597.328 879.583 604.115 879.583H695.286C702.073 879.583 707.616 885.125 707.616 892.025V898.247Z" fill="#2F4D44"/>
<path d="M606.377 897.228H599.703V930.485H606.377V897.228Z" fill="#2F4D44"/>
<path d="M698.792 897.228H692.118V930.485H698.792V897.228Z" fill="#2F4D44"/>
<path d="M707.615 911.481H591.784V916.345H707.615V911.481Z" fill="#2F4D44"/>
<path d="M707.615 901.301H591.784V908.766H707.615V901.301Z" fill="#2F4D44"/>
<path d="M-534.062 929.919H1099.34" stroke="#2F4D44" stroke-width="3" stroke-miterlimit="10"/>
<path d="M1181.58 811.725C1177.8 809.597 1177.44 804.277 1180.87 801.675C1187.85 796.473 1192.34 788.079 1192.34 778.739C1192.34 770.108 1188.44 762.305 1182.41 756.984C1177.91 753.083 1177.44 746.462 1181.11 741.851C1184.54 737.595 1186.43 732.274 1186.19 726.363C1185.6 714.54 1176.02 704.963 1164.2 704.49C1151.08 704.017 1140.32 714.421 1140.32 727.427C1140.32 732.984 1142.33 738.068 1145.64 742.087C1149.42 746.58 1148.83 753.201 1144.46 757.103C1138.43 762.423 1134.64 770.108 1134.64 778.739C1134.64 788.079 1139.14 796.473 1146.11 801.675C1149.54 804.277 1149.18 809.597 1145.4 811.725C1133.58 818.228 1125.66 830.997 1126.01 845.539C1126.48 865.402 1142.68 881.599 1162.66 882.072C1183.83 882.545 1201.09 865.638 1201.09 844.593C1201.09 830.406 1193.28 818.109 1181.58 811.725Z" fill="#8BCCBF"/>
<path d="M1301.04 744.452C1295.13 741.142 1294.54 732.865 1299.86 728.727C1310.73 720.451 1317.83 707.446 1317.83 692.667C1317.83 679.071 1311.8 666.775 1302.22 658.498C1295.24 652.469 1294.42 642.064 1300.21 634.852C1305.53 628.231 1308.6 619.719 1308.25 610.497C1307.42 591.935 1292.29 577.038 1273.84 576.21C1253.27 575.383 1236.48 591.816 1236.48 612.152C1236.48 620.901 1239.56 628.941 1244.76 635.089C1250.67 642.183 1249.73 652.469 1242.87 658.617C1233.41 666.893 1227.5 679.071 1227.5 692.549C1227.5 707.328 1234.59 720.333 1245.47 728.609C1250.91 732.747 1250.32 741.141 1244.41 744.334C1225.84 754.62 1213.43 774.601 1214.02 797.419C1214.85 828.632 1240.27 854.052 1271.36 854.761C1304.58 855.589 1331.66 828.868 1331.66 795.882C1331.66 773.891 1319.36 754.502 1301.04 744.452Z" fill="#2F4D44"/>
<path d="M1272.78 854.406V929.837" stroke="#2F4D44" stroke-width="3.4744" stroke-miterlimit="10"/>
<path d="M1163.73 878L1163.74 925" stroke="#8BCCBF" stroke-width="3.47"/>
</g>
<defs>
<linearGradient id="paint0_linear_304_2111" x1="720" y1="0" x2="720" y2="1000" gradientUnits="userSpaceOnUse">
<stop stop-color="#8BCCBF"/>
<stop offset="1" stop-color="white"/>
</linearGradient>
<clipPath id="clip0_304_2111">
<rect width="1440" height="1000" fill="white"/>
</clipPath>
</defs>
</svg>
