<svg width="1440" height="1000" viewBox="0 0 1440 1000" fill="none" xmlns="http://www.w3.org/2000/svg">
<g clip-path="url(#clip0_304_2729)">
<rect width="1440" height="1000" fill="white"/>
<rect width="1440" height="1000" fill="url(#paint0_linear_304_2729)" fill-opacity="0.5"/>
<path opacity="0.3" d="M-284.607 904.004C-304.148 962.206 -310.361 1019.79 -310.148 1070.06C-310.129 1074.25 -310.077 1078.39 -309.968 1082.49C-309.954 1083.14 -309.932 1083.8 -309.914 1084.45C-308.886 1119.73 -304.073 1150.73 -300.56 1175.34C-298.514 1189.61 -284.214 1223.72 -246.538 1274.28C-242.679 1279.47 -238.562 1284.83 -234.192 1290.37C-155.675 1389.76 6.1337 1543.97 320.806 1731.96C574.56 1883.57 1076.38 2109.28 1370.05 2143.04C1450.73 2152.31 1578.36 2086.32 1578.36 2086.32C1590.99 2076.61 1602.92 2066.97 1614.13 2057.42C1615.15 2056.57 1616.15 2055.72 1617.13 2054.87C1622.79 2050.01 1628.26 2045.18 1633.56 2040.38C1633.65 2040.28 1633.75 2040.19 1633.83 2040.09C1638.1 2035.57 1642.11 2031.08 1645.89 2026.62C1648.22 2023.86 1650.45 2021.11 1652.6 2018.38C1663.32 2004.76 1671.84 1991.35 1678.56 1978.11C1679.72 1975.85 1680.81 1973.59 1681.87 1971.35C1685.26 1964.05 1688.11 1956.8 1690.49 1949.6C1692.15 1944.58 1693.59 1939.59 1694.81 1934.61C1694.95 1934.06 1695.09 1933.49 1695.22 1932.94C1696.43 1927.87 1697.43 1922.8 1698.23 1917.75C1698.48 1916.28 1698.7 1914.81 1698.91 1913.34C1699.57 1908.6 1700.08 1903.87 1700.43 1899.15C1700.46 1898.99 1700.46 1898.81 1700.48 1898.65C1701.14 1889.82 1701.31 1881 1701.12 1872.19C1700.86 1859.18 1699.79 1846.19 1698.35 1833.12C1696.29 1814.47 1693.46 1795.67 1691.03 1776.57C1682.82 1711.94 1679.29 1643.67 1726.21 1564.38C1735.31 1548.98 1746.31 1533.19 1759.55 1516.91C1774.03 1499.12 1787.05 1481.21 1798.72 1463.24C1848.37 1386.72 1873.11 1308.98 1878.12 1233.47C1879.19 1217.22 1879.34 1201.06 1878.65 1185.06C1876.08 1126.63 1862.02 1070.02 1838.95 1016.9C1819.07 971.09 1792.48 927.877 1760.82 888.334C1745.94 869.728 1729.93 851.938 1712.96 835.07C1690.21 812.465 1665.76 791.513 1639.99 772.479C1474.75 650.47 1255.32 607.284 1087.3 713.079C865.756 852.574 653.687 792.149 578.897 727.79C563.225 714.299 547.21 701.078 530.785 688.337C430.579 610.698 314.834 551.698 166.804 569.03C166.754 569.035 166.688 569.033 166.635 569.047C166.604 569.052 166.585 569.052 166.546 569.054C153.827 570.557 140.867 572.607 127.661 575.277C122.89 576.23 118.084 577.28 113.246 578.402C104.033 580.524 94.6913 582.95 85.2279 585.681C54.0756 594.664 21.5877 606.929 -12.3691 622.892C-17.0901 625.105 -21.8277 627.397 -26.598 629.759C-26.598 629.759 -26.6016 629.767 -26.6052 629.775C-28.9145 630.905 -31.2233 632.055 -33.5307 633.243C-40.554 636.799 -47.6337 640.52 -54.782 644.391C-60.8531 647.699 -66.964 651.093 -73.1435 654.637C-93.5451 666.299 -112.262 678.649 -129.42 691.543C-146.193 704.138 -161.5 717.272 -175.434 730.799C-176.53 731.858 -177.61 732.924 -178.69 733.99C-179.312 734.6 -179.919 735.216 -180.523 735.825C-188.338 743.637 -195.703 751.589 -202.643 759.651C-205.969 763.514 -209.194 767.386 -212.317 771.305C-218.383 778.853 -224.089 786.491 -229.48 794.187C-254.411 829.923 -272.2 867.109 -284.594 904.039L-284.607 904.004Z" fill="#609B88"/>
<path d="M1303.94 253.796C1304.41 250.84 1304.65 247.884 1304.41 244.81C1303.23 226.603 1288.57 211.706 1270.24 210.169C1267.05 209.932 1263.98 210.051 1261.02 210.524C1254.28 211.588 1247.54 209.578 1242.93 204.494C1242.69 204.257 1242.46 203.903 1242.1 203.666C1237.96 199.055 1236.19 192.789 1237.26 186.759C1238.08 182.148 1238.32 177.419 1237.85 172.572C1235.36 146.561 1213.85 126.107 1187.72 125.043C1163.83 124.097 1143.38 138.876 1135.93 159.921C1132.98 168.197 1125.41 173.99 1116.54 174.227C1116.42 174.227 1116.31 174.227 1116.31 174.227C1110.75 174.345 1105.31 172.335 1101.29 168.433C1094.67 162.049 1085.57 158.147 1075.63 158.147C1057.19 158.147 1041.94 171.507 1038.98 189.006C1038.27 193.144 1036.15 196.927 1032.83 199.646C1032.6 199.883 1032.36 200.001 1032.13 200.237C1028.22 203.43 1023.02 204.612 1018.06 203.784C1015.45 203.311 1012.85 203.075 1010.13 203.075C991.691 203.075 975.611 213.716 967.926 229.204C966.744 231.569 964.852 233.46 962.37 234.524C962.133 234.642 962.015 234.643 961.778 234.761C959.296 235.825 956.576 235.825 954.093 235.115C950.31 233.933 946.172 233.578 941.916 234.17C930.684 235.588 921.462 243.51 918.151 254.032H1303.94V253.796Z" fill="white"/>
<path d="M373.464 480.798C347.453 492.621 323.689 476.305 315.886 459.635C299.097 424.402 261.973 400.874 212.671 414.589C152.373 428.777 145.279 479.025 147.289 504.444H446.885C432.579 471.34 399.948 467.675 373.464 480.798Z" fill="white"/>
<path d="M941.68 667.011H751.683V930.547H941.68V667.011Z" fill="#C2E2D6"/>
<path d="M941.679 667.011H751.683L775.329 576.328H941.679V667.011Z" fill="#8BCCBF"/>
<path d="M1151.18 481.508H886.111V929.01H1151.18V481.508Z" fill="#B2D8CA"/>
<path d="M868.968 481.508H1151.18V376.401L881.5 465.31C873.933 467.793 868.968 474.296 868.968 481.508Z" fill="#8BCCBF"/>
<path d="M1102.95 570.299H1124.82V526.199C1124.82 522.888 1122.1 520.169 1118.79 520.169H1108.98C1105.67 520.169 1102.95 522.888 1102.95 526.199V570.299Z" fill="#8BCCBF"/>
<path d="M1077.17 570.299H1099.04V526.199C1099.04 522.888 1096.32 520.169 1093.01 520.169H1083.2C1079.89 520.169 1077.17 522.888 1077.17 526.199V570.299Z" fill="#8BCCBF"/>
<path d="M1020.89 570.299H1042.77V526.199C1042.77 522.888 1040.05 520.169 1036.74 520.169H1026.92C1023.61 520.169 1020.89 522.888 1020.89 526.199V570.299Z" fill="#8BCCBF"/>
<path d="M995.119 570.299H1016.99V526.199C1016.99 522.888 1014.27 520.169 1010.96 520.169H1001.15C997.839 520.169 995.119 522.888 995.119 526.199V570.299Z" fill="#8BCCBF"/>
<path d="M938.842 570.299H960.714V526.199C960.714 522.888 957.995 520.169 954.685 520.169H944.872C941.561 520.169 938.842 522.888 938.842 526.199V570.299Z" fill="#8BCCBF"/>
<path d="M913.068 570.299H934.94V526.199C934.94 522.888 932.221 520.169 928.91 520.169H919.097C915.787 520.169 913.068 522.888 913.068 526.199V570.299Z" fill="#8BCCBF"/>
<path d="M1102.95 667.957H1124.82V623.857C1124.82 620.547 1122.1 617.827 1118.79 617.827H1108.98C1105.67 617.827 1102.95 620.547 1102.95 623.857V667.957Z" fill="#8BCCBF"/>
<path d="M1077.17 667.957H1099.04V623.857C1099.04 620.547 1096.32 617.827 1093.01 617.827H1083.2C1079.89 617.827 1077.17 620.547 1077.17 623.857V667.957Z" fill="#8BCCBF"/>
<path d="M1020.89 667.957H1042.77V623.857C1042.77 620.547 1040.05 617.827 1036.74 617.827H1026.92C1023.61 617.827 1020.89 620.547 1020.89 623.857V667.957Z" fill="#8BCCBF"/>
<path d="M995.119 667.957H1016.99V623.857C1016.99 620.547 1014.27 617.827 1010.96 617.827H1001.15C997.839 617.827 995.119 620.547 995.119 623.857V667.957Z" fill="#8BCCBF"/>
<path d="M938.842 667.957H960.714V623.857C960.714 620.547 957.995 617.827 954.685 617.827H944.872C941.561 617.827 938.842 620.547 938.842 623.857V667.957Z" fill="#8BCCBF"/>
<path d="M913.068 667.957H934.94V623.857C934.94 620.547 932.221 617.827 928.91 617.827H919.097C915.787 617.827 913.068 620.547 913.068 623.857V667.957Z" fill="#8BCCBF"/>
<path d="M1102.95 765.734H1124.82V721.634C1124.82 718.323 1122.1 715.604 1118.79 715.604H1108.98C1105.67 715.604 1102.95 718.323 1102.95 721.634V765.734Z" fill="#8BCCBF"/>
<path d="M1077.17 765.734H1099.04V721.634C1099.04 718.323 1096.32 715.604 1093.01 715.604H1083.2C1079.89 715.604 1077.17 718.323 1077.17 721.634V765.734Z" fill="#8BCCBF"/>
<path d="M1020.89 765.734H1042.77V721.634C1042.77 718.323 1040.05 715.604 1036.74 715.604H1026.92C1023.61 715.604 1020.89 718.323 1020.89 721.634V765.734Z" fill="#8BCCBF"/>
<path d="M995.119 765.734H1016.99V721.634C1016.99 718.323 1014.27 715.604 1010.96 715.604H1001.15C997.839 715.604 995.119 718.323 995.119 721.634V765.734Z" fill="#8BCCBF"/>
<path d="M938.842 765.734H960.714V721.634C960.714 718.323 957.995 715.604 954.685 715.604H944.872C941.561 715.604 938.842 718.323 938.842 721.634V765.734Z" fill="#8BCCBF"/>
<path d="M913.068 765.734H934.94V721.634C934.94 718.323 932.221 715.604 928.91 715.604H919.097C915.787 715.604 913.068 718.323 913.068 721.634V765.734Z" fill="#8BCCBF"/>
<path d="M1102.95 863.392H1124.82V819.292C1124.82 815.982 1122.1 813.262 1118.79 813.262H1108.98C1105.67 813.262 1102.95 815.982 1102.95 819.292V863.392Z" fill="#8BCCBF"/>
<path d="M1077.17 863.392H1099.04V819.292C1099.04 815.982 1096.32 813.262 1093.01 813.262H1083.2C1079.89 813.262 1077.17 815.982 1077.17 819.292V863.392Z" fill="#8BCCBF"/>
<path d="M1020.89 863.392H1042.77V819.292C1042.77 815.982 1040.05 813.262 1036.74 813.262H1026.92C1023.61 813.262 1020.89 815.982 1020.89 819.292V863.392Z" fill="#8BCCBF"/>
<path d="M995.119 863.392H1016.99V819.292C1016.99 815.982 1014.27 813.262 1010.96 813.262H1001.15C997.839 813.262 995.119 815.982 995.119 819.292V863.392Z" fill="#8BCCBF"/>
<path d="M938.842 863.392H960.714V819.292C960.714 815.982 957.995 813.262 954.685 813.262H944.872C941.561 813.262 938.842 815.982 938.842 819.292V863.392Z" fill="#8BCCBF"/>
<path d="M913.068 863.392H934.94V819.292C934.94 815.982 932.221 813.262 928.91 813.262H919.097C915.787 813.262 913.068 815.982 913.068 819.292V863.392Z" fill="#8BCCBF"/>
<path d="M1595.3 456.27L1138.7 457.329L1139.79 930.842L1596.4 929.783L1595.3 456.27Z" fill="#FBC051"/>
<path d="M1595.09 305.289L1138.72 306.348L1139.07 457.328L1595.44 456.27L1595.09 305.289Z" fill="#2F4D44"/>
<path opacity="0.5" d="M1595.14 403.003L1138.65 367.297L1138.18 306.29L1594.67 305.226L1595.14 403.003Z" fill="#619B88"/>
<path d="M1268.35 445.447L1211.6 445.565L1215.86 380.302L1263.62 380.42L1268.35 445.447Z" fill="white" stroke="#7D92A0" stroke-width="3.4459" stroke-miterlimit="10" stroke-linejoin="bevel"/>
<path d="M1238.3 393.885L1225.06 393.916L1225.1 415.079L1238.35 415.049L1238.3 393.885Z" fill="#2F4D44"/>
<path d="M1254.61 393.767L1241.37 393.798L1241.42 414.961L1254.66 414.93L1254.61 393.767Z" fill="#2F4D44"/>
<path d="M1238.42 417.176L1225.17 417.207L1225.22 438.37L1238.47 438.34L1238.42 417.176Z" fill="#2F4D44"/>
<path d="M1254.61 417.058L1241.37 417.089L1241.42 438.252L1254.66 438.222L1254.61 417.058Z" fill="#2F4D44"/>
<path d="M1395.45 445.447L1338.58 445.565L1342.95 380.302L1390.72 380.42L1395.45 445.447Z" fill="white" stroke="#7D92A0" stroke-width="3.4459" stroke-miterlimit="10" stroke-linejoin="bevel"/>
<path d="M1365.4 393.885L1352.15 393.916L1352.2 415.079L1365.44 415.048L1365.4 393.885Z" fill="#2F4D44"/>
<path d="M1381.59 393.767L1368.35 393.797L1368.4 414.961L1381.64 414.93L1381.59 393.767Z" fill="#2F4D44"/>
<path d="M1365.51 417.176L1352.27 417.207L1352.32 438.37L1365.56 438.34L1365.51 417.176Z" fill="#2F4D44"/>
<path d="M1381.71 417.058L1368.47 417.089L1368.52 438.252L1381.76 438.221L1381.71 417.058Z" fill="#2F4D44"/>
<path d="M1212.33 516.597L1189.39 516.651L1189.59 602.959L1212.53 602.906L1212.33 516.597Z" fill="#2F4D44"/>
<path d="M1240.47 516.597L1217.53 516.651L1217.73 602.959L1240.67 602.906L1240.47 516.597Z" fill="#2F4D44"/>
<path d="M1312.94 516.361L1290.01 516.414L1290.21 602.722L1313.14 602.669L1312.94 516.361Z" fill="#2F4D44"/>
<path d="M1340.96 516.361L1318.03 516.414L1318.23 602.723L1341.17 602.669L1340.96 516.361Z" fill="#2F4D44"/>
<path d="M1413.44 516.124L1390.5 516.177L1390.7 602.486L1413.64 602.432L1413.44 516.124Z" fill="#2F4D44"/>
<path d="M1441.58 516.124L1418.64 516.177L1418.84 602.486L1441.78 602.432L1441.58 516.124Z" fill="#2F4D44"/>
<path d="M1212.8 652.09L1189.87 652.143L1190.07 738.451L1213 738.398L1212.8 652.09Z" fill="#2F4D44"/>
<path d="M1240.94 651.971L1218 652.025L1218.21 738.333L1241.14 738.28L1240.94 651.971Z" fill="#2F4D44"/>
<path d="M1313.42 651.853L1290.48 651.906L1290.68 738.215L1313.62 738.161L1313.42 651.853Z" fill="#2F4D44"/>
<path d="M1341.44 651.735L1318.5 651.788L1318.7 738.097L1341.64 738.043L1341.44 651.735Z" fill="#2F4D44"/>
<path d="M1413.91 651.617L1390.98 651.67L1391.18 737.978L1414.11 737.925L1413.91 651.617Z" fill="#2F4D44"/>
<path d="M1442.05 651.498L1419.11 651.552L1419.32 737.86L1442.25 737.806L1442.05 651.498Z" fill="#2F4D44"/>
<path d="M1595.49 457.271H1138.41V465.31H1595.49V457.271Z" fill="#7D92A0"/>
<path d="M1595.49 626.34H1138.41V634.379H1595.49V626.34Z" fill="#7D92A0"/>
<path d="M1595.49 774.719H1138.41V782.759H1595.49V774.719Z" fill="#7D92A0"/>
<path d="M1560.52 806.845L1427.63 807.152L1427.83 893.46L1560.72 893.153L1560.52 806.845Z" fill="#2F4D44"/>
<path d="M1412.38 806.845L1279.48 807.152L1279.68 893.461L1412.58 893.154L1412.38 806.845Z" fill="#2F4D44"/>
<path d="M1240.68 928.182L1184.05 928.301L1183.82 831.352C1183.82 823.667 1190.55 817.401 1198.83 817.401L1225.31 817.282C1233.59 817.282 1240.45 823.43 1240.45 831.115L1240.68 928.182Z" fill="#2F4D44"/>
<path d="M143.038 744.452C137.126 741.142 136.535 732.865 141.855 728.727C152.733 720.451 159.827 707.446 159.827 692.667C159.827 679.071 153.797 666.775 144.22 658.498C137.244 652.469 136.417 642.064 142.21 634.852C147.531 628.231 150.605 619.719 150.25 610.497C149.422 591.935 134.289 577.038 115.845 576.21C95.2727 575.383 78.484 591.816 78.484 612.152C78.484 620.901 81.558 628.941 86.7601 635.089C92.6717 642.183 91.7258 652.469 84.8684 658.617C75.41 666.893 69.4985 679.071 69.4985 692.549C69.4985 707.328 76.5923 720.333 87.4695 728.609C92.9081 732.747 92.317 741.141 86.4055 744.334C67.8433 754.62 55.4291 774.601 56.0202 797.419C56.8478 828.632 82.2674 854.052 113.362 854.761C146.585 855.589 173.659 828.868 173.659 795.882C173.659 773.891 161.363 754.502 143.038 744.452Z" fill="#2F4D44"/>
<path d="M114.781 854.406V929.837" stroke="#2F4D44" stroke-width="3.4744" stroke-miterlimit="10"/>
<path d="M513.804 929.837H2221.05" stroke="#2F4D44" stroke-width="3" stroke-miterlimit="10"/>
</g>
<defs>
<linearGradient id="paint0_linear_304_2729" x1="720" y1="0" x2="720" y2="1000" gradientUnits="userSpaceOnUse">
<stop stop-color="white"/>
<stop offset="0.703125" stop-color="#F29259"/>
</linearGradient>
<clipPath id="clip0_304_2729">
<rect width="1440" height="1000" fill="white"/>
</clipPath>
</defs>
</svg>
